<svg xmlns="http://www.w3.org/2000/svg" width="6.922" height="12.831" viewBox="0 0 6.922 12.831"><defs><style>.a{fill:#2a2a2a;}</style></defs><path class="a" d="M30.327,17.343h-1.59c-.257,0-.337-.1-.337-.337V15.062c0-.257.1-.337.337-.337h1.59V13.312a3.567,3.567,0,0,1,.434-1.815,2.665,2.665,0,0,1,1.429-1.188,3.573,3.573,0,0,1,1.237-.209H35c.225,0,.321.1.321.321v1.831c0,.225-.1.321-.321.321-.434,0-.867,0-1.3.016a.58.58,0,0,0-.658.658c-.016.482,0,.947,0,1.445H34.9c.257,0,.353.1.353.353v1.943c0,.257-.08.337-.353.337H33.041v5.235c0,.273-.08.369-.369.369H30.664c-.241,0-.337-.1-.337-.337Z" transform="translate(-28.4 -10.1)"/></svg>