<svg xmlns="http://www.w3.org/2000/svg" width="12.429" height="12.429" viewBox="0 0 12.429 12.429"><defs><style>.a{fill:#2a2a2a;}</style></defs><path class="a" d="M46.333,43.8V39.246c0-2.237-.482-3.946-3.092-3.946A2.7,2.7,0,0,0,40.8,36.636H40.77V35.5H38.3v8.3h2.579V39.681c0-1.088.2-2.129,1.538-2.129,1.321,0,1.336,1.227,1.336,2.191v4.04h2.579Z" transform="translate(-33.903 -31.369)"/><path class="a" d="M11.3,36.6h2.579v8.3H11.3Z" transform="translate(-11.098 -32.467)"/><path class="a" d="M11.492,10a1.5,1.5,0,1,0,1.492,1.492A1.492,1.492,0,0,0,11.492,10Z" transform="translate(-10 -10)"/></svg>