<svg xmlns="http://www.w3.org/2000/svg" width="13.603" height="13.603" viewBox="0 0 13.603 13.603"><defs><style>.a{fill:#505050;stroke:#505050;stroke-width:0.5px;}</style></defs><g transform="translate(0.302 0.302)"><path class="a" d="M12.818,1.154l-.9-.887a.644.644,0,0,0-.9,0L6.542,4.746,1.979.183a.644.644,0,0,0-.9,0l-.9.9a.644.644,0,0,0,0,.9L4.736,6.532.267,11.022a.644.644,0,0,0,0,.9l.9.9a.644.644,0,0,0,.9,0L6.542,8.338l4.479,4.479a.644.644,0,0,0,.9,0l.9-.9a.644.644,0,0,0,0-.9L8.328,6.542l4.479-4.479A.648.648,0,0,0,12.818,1.154Z" transform="translate(0 0)"/></g></svg>