<svg xmlns="http://www.w3.org/2000/svg" width="8.886" height="8.885" viewBox="0 0 8.886 8.885"><defs><style>.a{fill:#e2886c;stroke:#e2886c;stroke-width:0.5px;}</style></defs><g transform="translate(0.288 0.288)"><path class="a" d="M8.193.738,7.619.171a.412.412,0,0,0-.574,0L4.182,3.034,1.265.117a.412.412,0,0,0-.574,0L.117.691a.412.412,0,0,0,0,.574l2.91,2.91L.171,7.045a.412.412,0,0,0,0,.574l.574.574a.412.412,0,0,0,.574,0L4.182,5.33,7.045,8.193a.412.412,0,0,0,.574,0l.574-.574a.412.412,0,0,0,0-.574L5.323,4.182,8.186,1.319A.414.414,0,0,0,8.193.738Z" transform="translate(0)"/></g></svg>