<svg xmlns="http://www.w3.org/2000/svg" width="17.484" height="11.196" viewBox="0 0 17.484 11.196"><defs><style>.a{fill:#2a2a2a;}</style></defs><path class="a" d="M6.139,89.272H8.873a3.475,3.475,0,1,1-.943-3.727.377.377,0,0,0,.512,0l1-.945a.375.375,0,0,0,0-.546A5.577,5.577,0,0,0,5.71,82.52a5.6,5.6,0,1,0,5.477,5.912c0-.037.007-1.285.007-1.285H6.139a.375.375,0,0,0-.375.375V88.9A.375.375,0,0,0,6.139,89.272Z" transform="translate(0 -82.519)"/><path class="a" d="M327.134,164.79v-1.271a.311.311,0,0,0-.311-.311h-1.07a.311.311,0,0,0-.311.311v1.271h-1.271a.311.311,0,0,0-.311.311v1.07a.311.311,0,0,0,.311.311h1.271v1.271a.311.311,0,0,0,.311.311h1.07a.311.311,0,0,0,.311-.311v-1.271H328.4a.311.311,0,0,0,.311-.311V165.1a.311.311,0,0,0-.311-.311Z" transform="translate(-311.231 -159.104)"/></svg>