<svg xmlns="http://www.w3.org/2000/svg" width="23.904" height="16.019" viewBox="0 0 23.904 16.019"><defs><style>.a{fill:#fff;}</style></defs><g transform="translate(0 5.008)"><path class="a" d="M8.784,92.181H12.7a4.972,4.972,0,1,1-1.35-5.332.539.539,0,0,0,.733,0l1.437-1.352a.537.537,0,0,0,0-.781,7.98,7.98,0,0,0-5.347-2.193,8.01,8.01,0,1,0,7.837,8.459c.006-.053.01-1.838.01-1.838H8.784a.537.537,0,0,0-.537.537v1.967A.537.537,0,0,0,8.784,92.181Z" transform="translate(0 -87.527)"/><path class="a" d="M328.544,165.471v-1.818a.445.445,0,0,0-.445-.445h-1.53a.445.445,0,0,0-.445.445v1.818h-1.818a.445.445,0,0,0-.445.445v1.53a.445.445,0,0,0,.445.445h1.818v1.818a.445.445,0,0,0,.445.445h1.53a.445.445,0,0,0,.445-.445v-1.818h1.818a.445.445,0,0,0,.445-.445v-1.53a.445.445,0,0,0-.445-.445Z" transform="translate(-306.904 -162.344)"/></g></svg>