<svg xmlns="http://www.w3.org/2000/svg" width="156.316" height="125.513" viewBox="0 0 156.316 125.513"><defs><style>.a{fill:#fff3eb;}.a,.c,.d,.e,.f,.g{fill-rule:evenodd;}.b,.c{fill:#fff;}.d{fill:#e7eaee;}.e{fill:#e2886c;}.f{fill:#2a2a2a;}.g{fill:#00160a;}</style></defs><g transform="translate(-467 -768)"><path class="a" d="M90.842,142.3c18.714,0,35.136-13.92,25.913-32.828s25.046-18.3,35.112-31.364c12.276-15.936,8.721-83.584-70.088-42.343-12.624,6.606-45.046-6.8-55.8-.146C13.32,43.448-4.491,59.477,13.32,75.9c8.773,8.088-22.681,29.081-8.9,47.884,13.442,18.348,22.865.857,43.33,4.6S76.944,142.3,90.842,142.3Z" transform="translate(466.128 751.212)"/><path class="b" d="M265.022,298.021a36.024,36.024,0,0,0,5.918-3.437,25.15,25.15,0,0,0,3.608-4.914s21.968,15.865,36.292,13.6c3.3-.521,9.731-2.715,10.141-6.58,1.12-10.554-14.373-13.251-10.989-18.6,2.066-3.267,8.483,1.6,8.483,1.6l26.617,13.092s-9.2,22.667-31.511,23.575C286.13,317.469,265.022,298.021,265.022,298.021Z" transform="translate(270.227 562.599)"/><path class="c" d="M96.966,9.013c-.25-.1-1.591-1.741-3.295-2.04-.774-.136-.071.85-.923.859-2.537.026-6.66-.45-7.424,0-.568.334.682,1.5,0,1.552-6.439.5-16.262,6.934-18.394,10.053-.678.993,4.807-.692,3.933-.2-.981.551-2.069,4.157-2.719,6.943a38.478,38.478,0,0,0-.834,7.072,10.46,10.46,0,0,0,.284,3.97c.384,1.418.684,1.835,1.2,1.635.183-.067.267-.317.267-.784a14.823,14.823,0,0,1,.45-2.452l.434-1.768.183.734a30.933,30.933,0,0,0,2.836,5.4c.067.1.353-.028.611-.652.235-.569.14-1.478.54-2.451a28.023,28.023,0,0,1,4.769-7.412c3.06-3.413,4.075-7.362,6.944-10.532C91.182,13.026,97.9,9.38,96.966,9.013Z" transform="translate(417.18 762.837)"/><path class="d" d="M74.631,57.529c-.859.691-2.133,6.292-2.155,6.385-.45,1.918-.884,8.579-.441,9.84s1.686-3.285,1.686-3.285,1.878,4.877,3.537,6.214c.071.057-1.972-6.033-2.628-9.589C73.766,62.4,75.12,57.136,74.631,57.529Z" transform="translate(413.489 725.349)"/><path class="c" d="M104.522,278.51a41.387,41.387,0,0,0,5.337-1.987c1.034-.417,4.186-4.868,5.321-9.889.817-3.7,1.234-8.973.767-9.857-.069-.125-.321-2.522.35-1.74,1.493,1.74,3.265,4.471,8.857-.423,1.523-1.333,3.542-3.053,3.01-4.574-1.487-4.255-7.933-12.823-8.916-13.472-1.175-.776-7.114-.117-15.952-2.725-10.023-2.958-14.2-11.67-18.119-10.536-3.172.917-10.772,6.553-12.68,10.122-9,16.849,1.907,28.655,4.392,32.046l2.413,1.042.083,2.152.117,1.351c.217,2.585.3,2.819,1.468,3.686,2.919,2.218,8.673,4.286,13.877,5.02A40.3,40.3,0,0,0,104.522,278.51Z" transform="translate(415.606 602.463)"/><path class="d" d="M111.522,315.543l.117,1.351c.217,2.586.3,2.819,1.468,3.686a26.108,26.108,0,0,0,7.431,3.526,39.673,39.673,0,0,0,6.446,1.494,40.314,40.314,0,0,0,9.674-.217c.989-.214-7.148-6.608-11.943-4.8-3.682,1.385-12.359-9.182-8.831-11.943,3.958-3.1-3.295-15.312-3.528-17.964s-1.153-3.285-1.18-3.192a5.15,5.15,0,0,0,.045,1.175C111.533,291.951,111.522,315.543,111.522,315.543Z" transform="translate(384.335 554.802)"/><path class="e" d="M107.7,296.9a.646.646,0,0,1,.757.511c1.259,6.467,6.584,10.846,16.105,13.135,9.578,2.3,16.1,2.179,19.54-.279.29-.208.074,1.57-.139,1.706-2.242,1.438-9.865,3.583-18.962,1.644-11.631-2.479-17.092-12.259-17.813-15.959A.646.646,0,0,1,107.7,296.9Z" transform="translate(387.29 547.821)"/><path class="e" d="M89.493,251.765c.31-.177,11.862,13.063,27.716,16.06s19.692,1.091,20.309-3a.646.646,0,0,1,1.277.193c-.782,5.181-8.118,6.413-21.8,4.078q-20.271-3.459-27.738-16.452A.646.646,0,0,1,89.493,251.765Z" transform="translate(400.646 581.285)"/><path class="f" d="M136.627,64.32a2.784,2.784,0,0,1-1.2-.867l-.5-.617,1.768-1.751a36.678,36.678,0,0,0,6.605-8.657,36.529,36.529,0,0,0,2.118-5.054,5.419,5.419,0,0,1,.4-1.068,2.539,2.539,0,0,1,1.3-1.368,2.507,2.507,0,0,1,2.235-.384c.8.534.8,2.218,0,5.12a24.186,24.186,0,0,1-4.52,8.757c-.384.5-1.1,1.484-1.618,2.168a11.119,11.119,0,0,1-3.5,3.4A3.136,3.136,0,0,1,136.627,64.32Zm11.976-1.5,1.2.534c.249.115,3,1.435,6.3,3.02,5.32,2.556,12.077,5.8,12.118,5.8a3.381,3.381,0,0,0,.45-1.568,22.982,22.982,0,0,1,1.5-6,10.943,10.943,0,0,0,.6-1.809,2.958,2.958,0,0,0-.715-.327c-.529-.213-1.3-.525-2.154-.933-4.2-2.018-12.426-6.138-13.444-6.755-1-.584-1.2-.634-1.2-.25a15.6,15.6,0,0,1-1.8,4.07c-.417.684-1.234,1.918-1.818,2.735Zm19.332,6.355c.478.277-.35.684-.55.751a6.465,6.465,0,0,1-3.7-.784c-.594-.421-5.275-3.022-8.379-4.746-1.419-.789-2.509-1.394-2.729-1.525a10.862,10.862,0,0,1-1.485-1c-.35-.45-.017-.65.967-.567C152.647,61.351,166.9,68.575,167.934,69.173Zm-67.8,43.667a32.067,32.067,0,0,0,4.556-1.661c.311-.131.578-.244.782-.326,1.035-.417,4.186-4.868,5.321-9.889.817-3.7,1.234-8.973.767-9.857-.282-.512,1.391,1.206,2.637,2.485.378.388.716.735.949.968,7.272,7.222,18.1,13.027,29.339,15.745a57.2,57.2,0,0,0,14.945,1.852c8.99,0,16.079-1.768,22.517-5.654.306-.185.592-.354.866-.516,2.244-1.329,3.581-2.12,7.241-6.239,4.1-4.62,7.756-15.345,8.974-19.048a65.507,65.507,0,0,0,1.835-9.957,4.8,4.8,0,0,0-1.618-3.836,5.532,5.532,0,0,0-5.738-1.5l-.867.334-.267-.884a5.552,5.552,0,0,0-2.418-3.2c-1.835-1.217-2.1-1.3-3.753-1.3a4.514,4.514,0,0,0-2.452.45l-.951.434-.2-.6a6.944,6.944,0,0,0-2.669-3.453,6.367,6.367,0,0,0-3.486-.283c-2.335.434-4,1.518-4.687,3.036-.2.467-.45.834-.55.834a52.715,52.715,0,0,1-7.289-2.652l-1.865-.827c-7.039-3.12-8.564-3.8-8.426-4.643a3.18,3.18,0,0,0-.117-1.734c-.35-1.034-.751-1.318-1.885-1.318-.9,0-.9,0-.8-.45.534-2.552.517-4.02-.05-4.954A2.2,2.2,0,0,0,148.9,43.17a2.038,2.038,0,0,0-1.551.334,3.032,3.032,0,0,1-.867.367,15.209,15.209,0,0,1,.267-2.035,35.345,35.345,0,0,0-3.175-22.274l-.116-.248a30.663,30.663,0,0,0-17.508-16.04c-.552-.209-1.074-.411-1.575-.605h0A30.765,30.765,0,0,0,110.807,0c-7.463.012-9.991,1.067-14.912,3.319a3.348,3.348,0,0,1-1.334.434,2.738,2.738,0,0,0-.684-.45c-.317-.167-1-.584-1.5-.917-1.434-.967-2.318-1.368-2.769-1.268-.517.133-.517.567,0,.767a1.168,1.168,0,0,1,.567.65c.217.6.467.667.617.167.067-.183.167-.317.217-.284l.179.085h0c.244.114.7.327,1.188.566.684.334,1.434.684,1.635.767.367.133.25.233-1.335,1.168A34.661,34.661,0,0,0,78.633,20.736a5.3,5.3,0,0,1-1.218,1.9,20.524,20.524,0,0,0-3.486,4.22,9.293,9.293,0,0,1-1.2,1.785,12.516,12.516,0,0,0-.984,1.318c-.133.267-.267.45-.317.417a11.394,11.394,0,0,1,.133-1.818c.25-2.218.25-2.8.05-2.852-.3-.083-.734,1.084-.917,2.535a18.663,18.663,0,0,0-.083,3.586L70.71,34l-1.184-1.918c-.407-.642-.808-1.283-1.093-1.738h0c-.181-.289-.314-.5-.373-.593a2.521,2.521,0,0,1-.5-1.9c.1-.183.083-.267-.083-.267-.35,0-1.034,1.117-1.484,2.4a3.764,3.764,0,0,1-.5,1.1c-.25,0-.133-5.971.133-7.889.55-3.786,2-8.456,2.652-8.456.133,0,.25-.067.25-.167,0-.3-.434-.183-.784.2-.784.851-1.818,3.469-2.469,6.255a38.477,38.477,0,0,0-.834,7.072,10.46,10.46,0,0,0,.284,3.97c.384,1.418.684,1.835,1.2,1.635.183-.067.267-.317.267-.784a14.824,14.824,0,0,1,.45-2.452l.434-1.768.183.734a30.933,30.933,0,0,0,2.835,5.4c.851,1.3.867,1.384,1.151,3.419a78.022,78.022,0,0,0,1.7,8.256c.958,3.8,6.343,7.579,7.688,8.521h0c.177.124.283.2.3.218a.59.59,0,0,0,.534.234c.15-.05.234.017.234.2a.691.691,0,0,0,.25.484c.167.117.284.567.317,1.351a12.325,12.325,0,0,0,2.151,5.554,3.57,3.57,0,0,0,3.152.667c.884-.133,1.134-.233,1.051-.434-.05-.133.267.033.7.367A35.766,35.766,0,0,0,105.3,70.858a40.729,40.729,0,0,0,7.956.45c1.785-.117,1.785-.117,1.7.234-.117.467.033.751,2.485,4.9a20.971,20.971,0,0,0,4.287,5.721,55.9,55.9,0,0,0,15.312,11.292c5.354,2.668,13.9,4.887,21.717,5.588s13.427-6.472,13.41-8.306a11.8,11.8,0,0,0-1.234-5.771c-.834-1.551-1.384-2.085-3.886-3.753a20.329,20.329,0,0,1-5.637-4.987,5.334,5.334,0,0,1-.984-2.786,1.888,1.888,0,0,1,1.284-1.484,1.709,1.709,0,0,1,1.618.217c.467.217,1.685.784,2.685,1.268,1.017.467,2,.934,2.2,1.034.59.164.84,1.319.975,1.945.03.14.055.253.076.323a4.934,4.934,0,0,0,2.052,2.369c1.252.67,4.337.759,5.187-.158a1.7,1.7,0,0,1,1.084-.434,2.272,2.272,0,0,1,.684,1.393,3.786,3.786,0,0,0,1.634,2.835c2.085,1.735,3.7,2.152,5.337,1.384a8.328,8.328,0,0,1,1.548-.557,5.176,5.176,0,0,1,.737,1.19c.328,2.37,3.836,3.363,4.77,3.464a4.573,4.573,0,0,0,1.054-.163c.566-.124,1.143-.251,1.265-.114.238.269-3.986,7.256-4.57,8.14-5.554,8.34-16.363,13.444-29.589,13.978-8.59.35-19.148-2.052-28.3-6.422a72.358,72.358,0,0,1-16.6-11.109c-.967-.834-2.085-1.785-2.485-2.118a16.7,16.7,0,0,1-2.085-2.4c-1.234-1.668-1.935-2.269-1.935-1.7a18.291,18.291,0,0,0,1.718,3.3c.367.6.6,1.017.517.951a10.712,10.712,0,0,0-.6,2.668,56.307,56.307,0,0,1-3.536,12.793,9.416,9.416,0,0,1-2.624,3.189c-1.6,1.218-4,1.765-7.317,2.1A37.7,37.7,0,0,1,82.1,109.037c-1.251-.467-4.47-1.818-4.687-1.968-.013-.013-.087-.493-.19-1.163-.029-.189-.06-.393-.094-.605-.6-4.12-1.434-19.982-1.434-27.321,0-3.036-.033-3.7-.234-3.7-.417,0-.584.4-.767,1.835a220.4,220.4,0,0,0,.117,23.918l.1.817-.567-.317a35.61,35.61,0,0,1-5.321-5.4,16.012,16.012,0,0,1-1.987-4.3c-.1-.3-.194-.568-.282-.807-2.419-6.705-1.568-14.229,1.768-21,2.836-5.771,6.322-8.973,11.425-10.525a11.845,11.845,0,0,0,1.651-.584c.317-.3-1.718-.15-2.836.2-3.636,1.118-7.439,4.17-10.024,8.073a30.047,30.047,0,0,0-4.12,20.432,23.93,23.93,0,0,0,1.651,5.421c.027.027.164.314.371.75a33.989,33.989,0,0,0,2.481,4.588,35.746,35.746,0,0,0,5.1,5.071L75,103l.117,1.351c.217,2.585.3,2.819,1.468,3.686,2.919,2.218,8.673,4.286,13.877,5.02A40.314,40.314,0,0,0,100.132,112.84Zm56.376-15.662a57.05,57.05,0,0,1-29.873-12.61A55.884,55.884,0,0,1,116.6,72.426c-.384-.667-.667-.984-1-1.068-.35-.1-.05-.2,1.384-.434a39,39,0,0,0,16.7-7.139l.7-.517.2.484a4.368,4.368,0,0,0,3.469,2.185,9.972,9.972,0,0,0,3.3-1.5l.717-.484.584.584c.534.534.634.567,1.635.567a5.208,5.208,0,0,0,3.3-1.251l.417-.383,1.184.784c.634.45,2.4,1.434,3.92,2.218,2.269,1.168,4.67,2.519,6.955,3.92l.367.234-.35.467a4.719,4.719,0,0,0-1.05,2.9c0,1.634,1.7,4.571,4.953,6.588,2.556,1.585,6.955,4.7,6.789,9.257a8.863,8.863,0,0,1-1.451,3.152,10.477,10.477,0,0,1-3.369,2.635A20.244,20.244,0,0,1,156.509,97.178ZM67.574,22.3c.45.1.751.25.684.317a1.969,1.969,0,0,1-1.635-.15c-.417-.4-.317-.684.267-.8a2.215,2.215,0,0,0,1-.55c.25-.25.467-.367.467-.284,0,.217-.834.984-1.251,1.151C66.841,22.1,66.924,22.154,67.574,22.3Zm6.638.267c.484-.267.383-.45-.183-.367s-.6.017-.234-.55a1.106,1.106,0,0,0,.2-.7c-.05-.217-.167-.117-.434.417-.2.384-.484.7-.617.7-.417,0-.45.334-.05.484A1.465,1.465,0,0,0,74.213,22.571Zm-5.771-9.107a15.266,15.266,0,0,0-2.752,1.118,23.21,23.21,0,0,1-2.135.967c-1.7-.183.667-3.019,4.97-5.921,4.12-2.785,6.905-4.253,9.491-5,1.618-.467,3.436-.534,3.953-.15.283.217.183.233-1.051.25-2.669,0-5.755,1.368-10.775,4.72-2.6,1.735-5.621,4.22-5.621,4.62,0,.083.484-.083,1.084-.35a6.5,6.5,0,0,1,3.186-.751C69.409,13.131,69.276,13.348,68.442,13.464ZM74.9,14.9c1.568-.317,1.635-.334,1.635-.5a3.3,3.3,0,0,0-1.351-.2l-1.351-.05L75.08,12.73a13.643,13.643,0,0,1,1.768-1.751c.617-.4.651-.684.15-.851l-.383-.117.417-.15A2.3,2.3,0,0,1,78,9.795c.45.067.55.033.5-.2s-.233-.284-1.051-.267c-2.385.033-3.4.667-1.534.967.517.083.951.217.951.3,0,.067-.083.133-.183.133a16.488,16.488,0,0,0-3.336,3.386C72.829,15.1,73.112,15.249,74.9,14.9ZM85.905,8.427c-.484.033-.6.117-.567.35l.005.034c.019.123.029.194,0,.216s-.145-.032-.4-.175L84.9,8.827c-.317-.167-.35-.25-.167-.384a1.868,1.868,0,0,1,.684-.3l.467-.117-.35-.367c-.184-.217-.284-.417-.234-.484a4.509,4.509,0,0,1,2,.234.26.26,0,0,0,.35-.033c.234-.233.55-.05.55.317,0,.2-.05.217-.2.067a.261.261,0,0,0-.4-.017c-.133.117-.233.117-.317-.017a1.125,1.125,0,0,0-.7-.167c-.308,0-.453,0-.483.059s.04.152.166.342c.266.416.25.417-.361.467ZM83.37,3.99a1.521,1.521,0,0,0-.45-.851l-.467-.467,2.5.1a23.645,23.645,0,0,1,3.5.367,8.336,8.336,0,0,0,1.418.234c.35,0,.283-.067-.367-.417-1.134-.584-2.585-.867-5.371-1.067-3.336-.234-5.02.083-4.7.917.05.167.317.25.717.25a4.741,4.741,0,0,1,2.6.934C83.236,4.474,83.37,4.474,83.37,3.99ZM75.23,48.157a34,34,0,0,0,3.97,4.37,11.444,11.444,0,0,0,.967.734c.017,0-.35-.767-.817-1.7a34.636,34.636,0,0,1-3.5-11.792,6.57,6.57,0,0,0-.5-2.085,2.407,2.407,0,0,1,.017-2.352,3.582,3.582,0,0,0,.334-1.585v-.917l-.8.834c-.784.817-1.534,1.151-1.534.65a8.362,8.362,0,0,1,1.885-2.685c.517-.434.584-.584.751-1.885.117-.784.384-2.168.6-3.086a9.289,9.289,0,0,0,.334-1.735c-.117-.117-4.036,4.385-4.57,5.821a5.979,5.979,0,0,1-.684,1.2l-.434.557s.135.78.284,1.76.221,1.67.284,2.277a22.753,22.753,0,0,0,.383,2.6,23.549,23.549,0,0,0,.6,2.635c.05.1.267.867.484,1.718A14.421,14.421,0,0,0,75.23,48.157Zm67.685,15.779-.35-.35s5.813-7.386,6.855-10.108c.795-2.077,1.263-2.666,1.894-2.666a.9.9,0,0,1,.775.281c.234.35.459.784.158,2.268-.5,2.4-1.268,3.986-3.569,7.406a17.634,17.634,0,0,1-1.518,1.951,7.657,7.657,0,0,1-3.194,1.468C143.382,64.27,143.215,64.236,142.915,63.936Z" transform="translate(420.052 767.996)"/><path class="b" d="M495.435,247c2.075-5.654,1.761-6.859,1.4-6.976a2.87,2.87,0,0,0-1.143,1.4c-.65,1.785-2.877,6.455-3.711,7.289-.984.984-.984.984-1.985.984s-3.887-1.507-4.28-2.993c-.629-2.377,2.078-10.634,2.145-11.1l-.45-.317c-.3.284-4.205,12.126-9.34,9.04a5.913,5.913,0,0,1-1.935-2.9c-.556-2.569,1.994-11.551,2.428-13.4.388-1.651,2.409-3.184,4.894-3.184,3.82,0,3.306,3.339,5.017,4.515.758.521,2-.424,2.388-.5,2.152-.4,2.976.066,4.554,1.317,1.217.966,2.118,2.879,3.11,3.553.551.374,1.135-.137,1.327-.234a3.976,3.976,0,0,1,2.935.234,6.877,6.877,0,0,1,2.627,2.849c1.2,4.251-2.592,13.676-4.024,15.444C499.024,254.96,493.36,252.658,495.435,247Z" transform="translate(113.718 601.244)"/><path class="c" d="M134.659,69.219a32.833,32.833,0,0,0,14.653,5.287,38.594,38.594,0,0,0,14.052-1.485c3.453-1.117,8.123-4.213,11.242-6.832,6.055-5.071,9.874-12.991,11.542-21.4a42.018,42.018,0,0,0,.573-7.113c0-3.436-1.512-12.826-6.094-18.239-9.45-11.166-24.983-16.2-38.038-11.9a36.322,36.322,0,0,0-13.509,8.029,35.45,35.45,0,0,0-9.691,17.463c-1.468,6.839.442,15.012,3.761,21.717C125.8,60.088,130.173,66.367,134.659,69.219Zm44.534-20.156c-3.136,9.424-11.309,16.463-21.583,18.6a22.986,22.986,0,0,1-4.854.467c-1.551.05-3.1.033-3.419,0a28.337,28.337,0,0,1-17.7-8.557,23.984,23.984,0,0,1-4.5-5.788,27.781,27.781,0,0,1-3.653-12.209c-1.2-15.829,10.124-29.022,26.07-30.39A28.775,28.775,0,0,1,168.018,16.3a37,37,0,0,1,6.588,6.522c.45.65,4.82,7.039,5.588,10.708A31.779,31.779,0,0,1,179.193,49.062Z" transform="translate(378.604 763.538)"/><path class="d" d="M274.054,128.55c0,11.2-5.3,23.435-12.13,28.662-3.261,2.494-7.522,5.514-11.233,6.68-5.438,1.71-14.052,1.485-14.052,1.485s8.788-1.175,12.044-2.486a33.827,33.827,0,0,0,17.584-15.062A73.043,73.043,0,0,0,274.054,128.55Z" transform="translate(291.277 672.668)"/><path class="c" d="M168.211,84.278a29.862,29.862,0,0,1-12.443-4.5,30.253,30.253,0,0,1-6.872-6.955,28.745,28.745,0,0,1-4.4-10.741,29.6,29.6,0,0,1,.017-9.557,26.8,26.8,0,0,1,2.435-6.922,25.79,25.79,0,0,1,5.171-7.172,26.852,26.852,0,0,1,13.594-7.439c1.718-.367,7.939-.667,8.156-.384a2.958,2.958,0,0,0,.734.484,16.985,16.985,0,0,1,2.051,1.585,12.159,12.159,0,0,1,2.669,3.2,18.242,18.242,0,0,1,1.234,2.118c0,.183.534.517.834.517.417,0,.7-1.251.784-3.453a10.256,10.256,0,0,1,.217-2.218,28.991,28.991,0,0,1,4,2.218,27.444,27.444,0,0,1,6.438,6.071c.784,1.034.9,1.3.9,1.935A3.643,3.643,0,0,0,194.414,45a27.433,27.433,0,0,1,2.936,8.273,28.526,28.526,0,0,1-.017,8.34,29.181,29.181,0,0,1-8.89,16.029A26.441,26.441,0,0,1,176.1,83.878,39.549,39.549,0,0,1,168.211,84.278ZM156.285,72.87a.657.657,0,0,0,.2-.534,2.64,2.64,0,0,0-.53-.277,8.828,8.828,0,0,1-2.488-1.524c-2.135-2.435-2.919-4.253-3.4-8.006-.467-3.653-.075-6.122.767-10.091a12.937,12.937,0,0,1,2.181-4.53c.462-.677.733-1.074.47-1.107-.651-.1-.751-.05-1.434.6a9.7,9.7,0,0,0-2.835,4.67c-1.084,3.369-1.294,12.475.852,16.579S155.9,73.3,156.285,72.87ZM180,58.859c-.283,2.591-1.484,6.338-2.886,7.973a6.864,6.864,0,0,1-5.054,1.818,6.431,6.431,0,0,1-4.77-3.119,15.261,15.261,0,0,1-2.085-6.3c-.674-4.447,2.269-9.624,3.536-10.908,1.284-1.318,2.2-1.785,3.369-1.8a4.592,4.592,0,0,1,3.019,1.067A13.57,13.57,0,0,1,180,58.859ZM157.52,45.065c.334-.384.384-.567.284-1.284a1.486,1.486,0,0,0-.551-1.218,1.421,1.421,0,0,0-1.951.033c-.4.384-.45.517-.4,1.434.05.984.083,1.051.634,1.351A1.511,1.511,0,0,0,157.52,45.065Zm10.408-10.291c-3,2.152-4.3,3.036-5.654,3.87-1.067.667-1.4.684-1.4.083,0-.317.233-.667.834-1.218l.834-.767-1.618-.217a10.115,10.115,0,0,1-3.97-1.118c-.634-.651-.083-.8,1.718-.467a31.12,31.12,0,0,0,3.453.334l2,.083,1.451-1.051c3.186-2.3,6.488-3.6,8.073-3.2.984.234.867.5-.25.634C172.114,31.888,171.33,32.322,167.928,34.774Z" transform="translate(359.896 745.385)"/><path class="b" d="M252.873,168.854c0-.083.1-.167.234-.167a.471.471,0,0,1,.35.167c.05.1-.05.167-.234.167C253.023,169.021,252.873,168.954,252.873,168.854Z" transform="translate(279.237 642.896)"/><path class="b" d="M256.746,167.746c0-.183.417-.35.884-.35.367.017.367.017.05.25C257.313,167.93,256.746,167.98,256.746,167.746Z" transform="translate(276.365 643.854)"/><path class="b" d="M246.221,164.919c-.05-.133-.117-.367-.167-.5q-.075-.25.25-.25c.183,0,.334.1.334.234a1.9,1.9,0,0,0,.1.5c.067.184.017.267-.167.267A.383.383,0,0,1,246.221,164.919Z" transform="translate(284.305 646.248)"/><path class="b" d="M250.107,163.544c-.083-.5.1-.667.7-.667.183,0,.334.167.4.45.134.484-.083.717-.667.717C250.274,164.045,250.157,163.928,250.107,163.544Z" transform="translate(281.303 647.205)"/><path class="b" d="M242.907,165.064c-.317-.25-.317-.25.033-.25.217,0,.367.1.367.25C243.307,165.364,243.307,165.364,242.907,165.064Z" transform="translate(286.802 645.769)"/><path class="b" d="M256.214,162.678c-.217-.217-.117-.867.15-.967.484-.183.7-.1.8.334a1.031,1.031,0,0,1,.067.484A1.494,1.494,0,0,1,256.214,162.678Z" transform="translate(276.847 648.138)"/><path class="b" d="M262.011,161.537a.922.922,0,0,1-.1-.467c0-.283.133-.4.534-.484.35-.067.567-.033.667.1.167.267.167.6.017.684A1.8,1.8,0,0,1,262.011,161.537Z" transform="translate(272.535 648.929)"/><path class="b" d="M240.608,160.96a.441.441,0,0,1,.367-.417c.434-.117.417-.134.5.3.033.25-.05.35-.4.383C240.708,161.277,240.608,161.211,240.608,160.96Z" transform="translate(288.333 648.988)"/><path class="b" d="M245.188,160.366c-.234-.25-.083-.717.234-.717a.3.3,0,0,1,.334.317C245.755,160.283,245.371,160.55,245.188,160.366Z" transform="translate(285.021 649.599)"/><path class="b" d="M249.293,158.908c-.133-.317.15-.55.7-.55.25,0,.367.1.367.317a.471.471,0,0,1-.367.417C249.443,159.225,249.41,159.225,249.293,158.908Z" transform="translate(281.916 650.557)"/><path class="b" d="M267.909,159.816c.05-.083.133-.167.183-.167s.033.083-.017.167c-.05.1-.133.167-.183.167S267.859,159.916,267.909,159.816Z" transform="translate(268.121 649.599)"/><path class="b" d="M255.071,157.5c-.133-.334.033-.5.567-.584.3-.033.434.033.467.267C256.222,157.732,255.272,158.032,255.071,157.5Z" transform="translate(277.639 651.633)"/><path class="b" d="M239.472,156.376c-.15-.551-.117-.6.317-.6.233,0,.417.067.417.15a1.543,1.543,0,0,0,.1.4c.05.167-.05.267-.334.317C239.655,156.71,239.538,156.643,239.472,156.376Z" transform="translate(289.236 652.471)"/><path class="b" d="M261.265,155.821c0-.3.117-.434.434-.517.467-.117.734.117.734.651,0,.217-.133.284-.584.284C261.332,156.238,261.265,156.188,261.265,155.821Z" transform="translate(273.014 652.843)"/><path class="b" d="M237.7,156.671c-.05-.134-.017-.25.067-.25.1,0,.167.117.167.25s-.033.25-.067.25S237.766,156.8,237.7,156.671Z" transform="translate(290.508 651.993)"/><path class="b" d="M243.946,155.617a.484.484,0,0,1,.2-.767.543.543,0,0,1,.417.017.535.535,0,0,1-.167.767C244.08,155.751,244.08,155.751,243.946,155.617Z" transform="translate(285.946 653.181)"/><path class="b" d="M267.14,154.825c-.184-.484.017-.851.484-.9.35-.05.45.017.45.284,0,.55-.183.851-.517.851A.45.45,0,0,1,267.14,154.825Z" transform="translate(268.707 653.856)"/><path class="b" d="M248.475,154.774a.366.366,0,0,1,.15-.617c.317-.117.984.217.8.4C249.192,154.757,248.592,154.907,248.475,154.774Z" transform="translate(282.585 653.69)"/><path class="b" d="M254.348,153.182c-.15-.234.384-.634.817-.634.2,0,.283.1.25.283C255.349,153.165,254.5,153.432,254.348,153.182Z" transform="translate(278.163 654.865)"/><path class="b" d="M236.368,152.586a1.821,1.821,0,0,0-.1-.417c-.05-.15-.033-.267.067-.267.217,0,.384.634.183.767C236.435,152.719,236.368,152.686,236.368,152.586Z" transform="translate(291.572 655.345)"/><path class="b" d="M238.4,151.245a.463.463,0,0,1,.484-.634c.217,0,.434.651.3.867C239,151.762,238.487,151.6,238.4,151.245Z" transform="translate(289.987 656.302)"/><path class="b" d="M242.638,150.644a.623.623,0,0,1,.234-.934c.25-.067.384.017.517.317a.83.83,0,0,1,.117.467C243.338,150.644,242.738,150.761,242.638,150.644Z" transform="translate(286.921 656.986)"/><path class="b" d="M260.116,151.608c-.217-.217-.117-.35.384-.534.417-.134.534-.117.617.083C261.266,151.558,260.433,151.941,260.116,151.608Z" transform="translate(273.946 656.022)"/><path class="b" d="M265.952,150.466c-.167-.267.067-.5.5-.5.517,0,.667.434.2.567C266.152,150.666,266.069,150.65,265.952,150.466Z" transform="translate(269.578 656.78)"/><path class="b" d="M271.594,149.15c0-.25.3-.517.434-.384.117.117-.117.617-.284.617C271.661,149.383,271.594,149.283,271.594,149.15Z" transform="translate(265.353 657.697)"/><path class="b" d="M235.6,147.556a.643.643,0,0,1-.1-.45c0-.317.017-.317.167.05C235.832,147.556,235.8,147.756,235.6,147.556Z" transform="translate(292.125 659.074)"/><path class="b" d="M236.876,146.727c-.15-.584-.134-.634.3-.634.484,0,.784.617.417.851C237.21,147.177,236.993,147.11,236.876,146.727Z" transform="translate(291.165 659.653)"/><path class="b" d="M259.329,146.574a5.079,5.079,0,0,1,.183-.617c.234-.667.751-.7.867-.05a1.618,1.618,0,0,1,.05.484A2.767,2.767,0,0,1,259.329,146.574Z" transform="translate(274.45 660.139)"/><path class="b" d="M241.37,146.333a.675.675,0,0,1-.117-.434c0-.267.05-.283.25-.117a.737.737,0,0,1,.25.434C241.753,146.466,241.553,146.533,241.37,146.333Z" transform="translate(287.855 659.963)"/><path class="b" d="M264.877,144.937c-.1-.517.117-.751.634-.684.25.033.334.183.334.55,0,.417-.067.517-.434.551C265.044,145.4,264.96,145.321,264.877,144.937Z" transform="translate(270.353 661.026)"/><path class="b" d="M270.929,144.511c-.217-.667-.15-.867.3-.917.4-.05.45,0,.45.434,0,.367-.1.517-.35.584C271.146,144.662,270.962,144.611,270.929,144.511Z" transform="translate(265.935 661.518)"/><path class="b" d="M234.927,142.489c0-.317.033-.45.083-.283a1.715,1.715,0,0,1,0,.584C234.96,142.939,234.927,142.806,234.927,142.489Z" transform="translate(292.547 662.589)"/><path class="b" d="M236.2,141.476a.718.718,0,0,1,.15-.951c.384-.15.567.033.567.584,0,.35-.083.484-.3.484A.654.654,0,0,1,236.2,141.476Z" transform="translate(291.689 663.819)"/><path class="b" d="M240.214,140.836c-.067-.25-.1-.517-.033-.567.167-.167.267.1.217.584l-.05.467Z" transform="translate(288.677 664.009)"/><path class="b" d="M261.265,141.448c0-.183.083-.284.167-.234a.42.42,0,0,1,.167.35c0,.133-.067.233-.167.233C261.348,141.8,261.265,141.648,261.265,141.448Z" transform="translate(273.014 663.281)"/><path class="b" d="M263.873,140.511a.516.516,0,0,1,.334-.8c.484-.117.5-.117.651.367.1.3.033.367-.4.434A1.275,1.275,0,0,1,263.873,140.511Z" transform="translate(271.156 664.434)"/><path class="b" d="M268.973,135.415c-.183-.167-.133-.717.05-.717a.158.158,0,0,0,.167-.167c0-.083-.1-.167-.234-.167-.284,0-.517-.817-.284-1.051.3-.3.634.017.834.834.117.434.234.934.284,1.1.067.217,0,.283-.317.283A.836.836,0,0,1,268.973,135.415Z" transform="translate(267.59 669.213)"/><path class="b" d="M270.931,127.334c-.117-.5-.417-1.5-.634-2.235-.334-1.068-.367-1.335-.183-1.451a.847.847,0,0,1,.317-.15,15.427,15.427,0,0,1,.784,4.086l-.05.667Z" transform="translate(266.533 676.41)"/><path class="b" d="M234.281,137.214c0-.267.033-.367.083-.2a1.261,1.261,0,0,1,0,.5C234.314,137.615,234.281,137.5,234.281,137.214Z" transform="translate(293.026 666.446)"/><path class="b" d="M235.519,136.4c.067-.584.551-.717.684-.183.117.434.15.384-.35.55C235.5,136.871,235.469,136.837,235.519,136.4Z" transform="translate(292.121 667.223)"/><path class="b" d="M262.721,135.275c-.134-.484.15-.767.684-.7a.591.591,0,0,1,.217.984C263.2,135.825,262.821,135.708,262.721,135.275Z" transform="translate(271.958 668.202)"/><path class="b" d="M239.317,135.552c0-.284.083-.434.267-.434.167,0,.233.117.2.367C239.7,136.019,239.317,136.069,239.317,135.552Z" transform="translate(289.291 667.792)"/><path class="b" d="M233.562,133.582c0-.183.05-.233.1-.1a.338.338,0,0,1-.017.317C233.6,133.865,233.545,133.765,233.562,133.582Z" transform="translate(293.562 669.061)"/><path class="b" d="M234.8,132.886c0-.25.1-.35.35-.35.234,0,.317.083.284.283C235.348,133.253,234.8,133.3,234.8,132.886Z" transform="translate(292.642 669.707)"/><path class="b" d="M238.165,131.927c-.117-.3-.117-.3.384-.434.3-.1.367-.05.367.2C238.916,132.094,238.315,132.294,238.165,131.927Z" transform="translate(290.192 670.516)"/><path class="b" d="M261.63,130.588c-.117-.417.1-.634.684-.634.283,0,.367.1.367.417,0,.25-.1.417-.233.417a1.667,1.667,0,0,0-.484.1C261.813,130.938,261.7,130.838,261.63,130.588Z" transform="translate(272.766 671.622)"/><path class="b" d="M267.215,129.247c-.134-.334.067-.584.45-.584.234,0,.317.117.317.417s-.083.417-.334.417A.49.49,0,0,1,267.215,129.247Z" transform="translate(268.632 672.579)"/><path class="b" d="M234.152,128.258c0-.35.384-.751.551-.567a.839.839,0,0,1,.117.5c0,.267-.1.384-.334.384A.3.3,0,0,1,234.152,128.258Z" transform="translate(293.121 673.334)"/><path class="b" d="M237.572,127.265c-.134-.417.017-.6.584-.684.517-.067.684.484.234.817C237.956,127.715,237.689,127.665,237.572,127.265Z" transform="translate(290.619 674.127)"/><path class="b" d="M260.726,126.123c-.117-.1-.167-.717-.067-.717.017,0,.267-.067.567-.15.5-.15.534-.133.517.317-.017.334-.117.5-.367.567C260.926,126.256,260.86,126.256,260.726,126.123Z" transform="translate(273.503 675.169)"/><path class="b" d="M258.683,126.981c0-.117.05-.167.117-.117a.2.2,0,0,1,0,.233C258.733,127.148,258.683,127.1,258.683,126.981Z" transform="translate(274.929 673.927)"/><path class="b" d="M265.882,124.637c.05-.284.567-.7.684-.567a1.308,1.308,0,0,1,.183.467c.117.334.067.367-.4.367C265.949,124.9,265.832,124.837,265.882,124.637Z" transform="translate(269.598 676.004)"/><path class="b" d="M234.8,124.8a1.025,1.025,0,0,1,.167-.384c.134-.2.167-.183.167.134,0,.2-.067.367-.167.367C234.881,124.913,234.8,124.863,234.8,124.8Z" transform="translate(292.642 675.829)"/><path class="b" d="M236.734,123.535c0-.467.35-.617.617-.267.167.25.167.334,0,.45C237,123.935,236.734,123.868,236.734,123.535Z" transform="translate(291.207 676.723)"/><path class="b" d="M255.707,123.142c-.3-.334-.3-.35-.017-.25a1.7,1.7,0,0,0,.467.117c.083,0,.15.117.15.25C256.307,123.609,256.074,123.576,255.707,123.142Z" transform="translate(277.305 676.899)"/><path class="b" d="M240.762,118.828c-.717-.55-.817-1.785-.15-1.785.45,0,.867.7.8,1.351C241.363,118.994,241.163,119.128,240.762,118.828Z" transform="translate(288.663 681.197)"/><path class="b" d="M260.112,124.23a.2.2,0,0,1,.234,0c.05.067,0,.117-.117.117S260.062,124.3,260.112,124.23Z" transform="translate(273.883 675.895)"/><path class="b" d="M269.835,120.67a2.63,2.63,0,0,0,.1-.334c0-.033.083-.067.167-.067.1,0,.167.15.167.334,0,.2-.117.334-.267.334C269.818,120.937,269.768,120.854,269.835,120.67Z" transform="translate(266.679 678.804)"/><path class="b" d="M236.089,118.705c0-.384.35-1.017.55-1.017.35,0,.1,1.068-.267,1.134C236.222,118.856,236.089,118.805,236.089,118.705Z" transform="translate(291.685 680.719)"/><path class="b" d="M249.177,120.078l-.5-.117.45-.117c.467-.133.8-.033.8.25C249.928,120.262,249.911,120.262,249.177,120.078Z" transform="translate(282.349 679.163)"/><path class="b" d="M248.354,116.155c0-.684.384-.784.734-.183.234.4.25.484.033.484a1.9,1.9,0,0,0-.5.1C248.421,116.638,248.354,116.538,248.354,116.155Z" transform="translate(282.589 682.285)"/><path class="b" d="M256.044,106.944a2.394,2.394,0,0,1-1.234-2.268,1.387,1.387,0,0,1,.517-1.351,2.128,2.128,0,0,1,.651-.484c.367,0,1.718,1.284,2.168,2.085l.517.917-.55.584A1.706,1.706,0,0,1,256.044,106.944Z" transform="translate(277.801 691.729)"/><path class="b" d="M246.027,116.564c-.05-.083-.017-.167.067-.167a.183.183,0,0,1,.183.167c0,.1-.033.167-.067.167C246.161,116.731,246.077,116.664,246.027,116.564Z" transform="translate(284.332 681.676)"/><path class="b" d="M237.516,114.861a2.606,2.606,0,0,0,.1-.334c0-.033.15-.067.334-.067.417,0,.434.267.017.5C237.516,115.195,237.4,115.178,237.516,114.861Z" transform="translate(290.658 683.112)"/><path class="b" d="M241.64,113.316c-.384-.05-.5-.267-.25-.417a2.99,2.99,0,0,1,.667-.2c.45-.1.534-.067.534.217C242.591,113.267,242.241,113.417,241.64,113.316Z" transform="translate(287.852 684.456)"/><path class="b" d="M247.709,112.21c0-.2.017-.317.05-.283.017.033.15.2.267.367.2.234.183.284-.05.284C247.809,112.577,247.709,112.444,247.709,112.21Z" transform="translate(283.067 684.995)"/><path class="b" d="M238.671,111.775a.357.357,0,0,1,.167-.267c.1-.05.167.017.167.15,0,.15-.067.267-.167.267A.165.165,0,0,1,238.671,111.775Z" transform="translate(289.77 685.314)"/><path class="b" d="M241.03,110.171c-.134-.334,1.051-.7,1.251-.384.15.267,0,.384-.634.517C241.263,110.388,241.1,110.354,241.03,110.171Z" transform="translate(288.028 686.668)"/><path class="b" d="M247.119,109.051c0-.183.05-.233.1-.1a.338.338,0,0,1-.017.317C247.152,109.334,247.1,109.234,247.119,109.051Z" transform="translate(283.508 687.254)"/><path class="b" d="M241.529,105.744c.2-.367.784-.967.934-.967.167,0,.183.784.017.884-.083.033-.35.117-.6.183C241.512,105.928,241.428,105.911,241.529,105.744Z" transform="translate(287.68 690.294)"/><path class="b" d="M246.539,104.669c-.183-.5-.1-.717.3-.784.417-.083.417-.083.15.434C246.656,104.986,246.672,104.986,246.539,104.669Z" transform="translate(284.004 690.985)"/><path class="b" d="M246.418,100.713a3.592,3.592,0,0,1,.751-.5,1.56,1.56,0,0,1,1.1-.334c.3.1.217.167-.517.517C246.935,100.763,246.418,100.9,246.418,100.713Z" transform="translate(284.025 693.941)"/><path class="b" d="M273.322,35.961a17.638,17.638,0,0,0-2.085-2.335c-.684-.634-1.134-1.151-1-1.151a26.648,26.648,0,0,1,3.87,1.067c.584.25.6.284.45.8a8.243,8.243,0,0,0-.15,1.668,2.781,2.781,0,0,1-.117,1.134A5.92,5.92,0,0,1,273.322,35.961Z" transform="translate(266.378 743.914)"/><path class="b" d="M143.226,228.225c-.684-.35-.834-.55-1.7-2.268-1.251-2.435-1.284-3-.1-1.618.467.55,1.551,1.685,2.4,2.518,1.451,1.4,1.518,1.5,1.034,1.434-.35-.05-.484-.017-.4.117C144.661,228.709,144.027,228.625,143.226,228.225Z" transform="translate(362.531 602.173)"/><path class="g" d="M258.917,331.222a.646.646,0,0,1,.345-.846l.359-.152c3.494-1.495,5.5-2.393,6.862-3.819s1.526-3.52,1.782-4.795c.07-.35.862.265,1.212.335a.646.646,0,0,1,.506.76,8.882,8.882,0,0,1-2.471,4.38c-1.33,1.382-3.9,2.864-7.749,4.482A.646.646,0,0,1,258.917,331.222Z" transform="translate(274.793 529.564)"/><path class="f" d="M246.776,101.283a.646.646,0,0,1,.885.225,20.031,20.031,0,0,1-25.617,28.411c-.324-.15-1.547-1.343-.315-.857a34.942,34.942,0,0,0,8.748,1.574c10.345,0,17.664-8.553,17.664-18.9,0-3.416-1.366-6.448-1.591-9.567C246.525,101.807,246.469,101.465,246.776,101.283Z" transform="translate(302.734 692.952)"/><path class="g" d="M72.189,288.88c.228-.274.636-.828.91-.6,1.124.937,2.324,2.022,3.608,2.231a17.108,17.108,0,0,0,4.752,0,.646.646,0,0,1,.155,1.283,18.36,18.36,0,0,1-5.115,0,8.752,8.752,0,0,1-4.227-2A.646.646,0,0,1,72.189,288.88Z" transform="translate(413.348 554.243)"/><path class="b" d="M102.863,124.047a34,34,0,0,1-3.97-4.37,14.427,14.427,0,0,1-1.951-4.67c-.217-.851-.434-1.618-.484-1.718a23.549,23.549,0,0,1-.6-2.635c-.4-1.935-.316-2.558-.667-4.872-.149-.98-.284-1.76-.284-1.76l.434-.557a5.978,5.978,0,0,0,.684-1.2c.534-1.436,4.453-5.938,4.57-5.821a9.289,9.289,0,0,1-.334,1.735c-.217.917-.484,2.3-.6,3.086-.167,1.3-.234,1.451-.751,1.885a8.362,8.362,0,0,0-1.885,2.685c0,.5.751.167,1.534-.65l.8-.834v.917a3.581,3.581,0,0,1-.334,1.585,2.407,2.407,0,0,0-.017,2.352,6.571,6.571,0,0,1,.5,2.085,34.636,34.636,0,0,0,3.5,11.792c.467.934.834,1.7.817,1.7A11.447,11.447,0,0,1,102.863,124.047Z" transform="translate(396.389 696.476)"/><path class="c" d="M394.313,218.617l1.2.534c.249.115,3,1.435,6.3,3.02,5.32,2.556,12.077,5.8,12.118,5.8a3.381,3.381,0,0,0,.45-1.568,22.983,22.983,0,0,1,1.5-6,10.943,10.943,0,0,0,.6-1.809,2.96,2.96,0,0,0-.715-.327c-.529-.213-1.3-.525-2.154-.933-4.2-2.018-12.426-6.138-13.444-6.755-1-.584-1.2-.634-1.2-.25a15.607,15.607,0,0,1-1.8,4.07c-.417.684-1.234,1.918-1.818,2.735Zm19.332,6.355c.478.277-.35.684-.55.751a6.465,6.465,0,0,1-3.7-.784c-.594-.421-5.275-3.022-8.379-4.746-1.419-.789-2.509-1.394-2.729-1.525a10.859,10.859,0,0,1-1.485-1c-.35-.45-.017-.65.967-.567C398.357,217.149,412.611,224.373,413.645,224.972Z" transform="translate(174.342 612.198)"/><path class="b" d="M343.079,191.8a2.783,2.783,0,0,1-1.2-.867l-.5-.617,1.768-1.751a37.271,37.271,0,0,0,6.522-8.838c.6-1.084,2.385-5.457,2.6-5.94a2.539,2.539,0,0,1,1.3-1.368,2.507,2.507,0,0,1,2.235-.384c.8.534.8,2.218,0,5.12a24.187,24.187,0,0,1-4.52,8.757c-.384.5-1.1,1.484-1.618,2.168a11.116,11.116,0,0,1-3.5,3.4A3.135,3.135,0,0,1,343.079,191.8Z" transform="translate(213.6 640.515)"/><path class="b" d="M371.294,209.774l-.35-.35s5.814-7.386,6.855-10.108c.795-2.077,1.263-2.666,1.894-2.666a.9.9,0,0,1,.775.281c.234.35.459.784.158,2.268-.5,2.4-1.268,3.986-3.569,7.406a17.629,17.629,0,0,1-1.518,1.951,7.659,7.659,0,0,1-3.194,1.468C371.762,210.107,371.595,210.074,371.294,209.774Z" transform="translate(191.673 622.158)"/><path class="d" d="M410.08,212.011a6.7,6.7,0,0,0,.576-1.684c0-.384.2-.334,1.2.25,1.017.617,9.24,4.737,13.444,6.755,1.568.751,2.869,1.176,2.869,1.26S409.724,212.827,410.08,212.011Z" transform="translate(162.652 612.198)"/><path class="d" d="M155.768,101.614a30.253,30.253,0,0,1-6.872-6.955,28.745,28.745,0,0,1-4.4-10.741,29.6,29.6,0,0,1,.017-9.557,26.8,26.8,0,0,1,2.435-6.922,25.79,25.79,0,0,1,5.171-7.172c2.208-2.208-7.606,6.923-5.171,23.262C148.9,97.218,157.283,102.612,155.768,101.614Z" transform="translate(359.896 723.547)"/></g></svg>