<svg xmlns="http://www.w3.org/2000/svg" width="118.255" height="94.952" viewBox="0 0 118.255 94.952"><defs><style>.a{fill:#fff3eb;}.a,.c,.d,.e,.f,.g{fill-rule:evenodd;}.b,.c{fill:#fff;}.d{fill:#e7eaee;}.e{fill:#e2886c;}.f{fill:#2a2a2a;}.g{fill:#00160a;}</style></defs><g transform="translate(-467 -768)"><path class="a" d="M68.936,113.163c14.157,0,26.581-10.531,19.6-24.835S107.487,74.487,115.1,64.6c9.287-12.056,6.6-63.232-53.023-32.033-9.55,5-34.078-5.142-42.214-.111-9.577,5.922-23.051,18.048-9.577,30.47,6.637,6.119-17.158,22-6.736,36.225,10.169,13.88,17.3.648,32.78,3.479S58.421,113.163,68.936,113.163Z" transform="translate(466.128 749.789)"/><path class="b" d="M265.022,292.893a27.252,27.252,0,0,0,4.477-2.6,19.027,19.027,0,0,0,2.73-3.717s16.619,12,27.455,10.29c2.5-.394,7.361-2.054,7.672-4.978.847-7.984-10.874-10.025-8.313-14.074,1.563-2.471,6.417,1.207,6.417,1.207l20.136,9.9s-6.957,17.148-23.838,17.835C280.991,307.606,265.022,292.893,265.022,292.893Z" transform="translate(253.609 545.175)"/><path class="c" d="M89.638,8.513A6.038,6.038,0,0,0,87.146,6.97c-.585-.1-.054.643-.7.65-1.919.02-5.038-.341-5.616,0-.429.252.516,1.134,0,1.174-4.871.382-12.3,5.246-13.915,7.605-.513.751,3.637-.523,2.976-.152-.742.417-1.565,3.145-2.057,5.252a29.109,29.109,0,0,0-.631,5.35,7.913,7.913,0,0,0,.215,3c.29,1.073.517,1.388.909,1.237.139-.051.2-.24.2-.593a11.214,11.214,0,0,1,.341-1.855L69.2,27.3l.139.555a23.4,23.4,0,0,0,2.145,4.088c.05.077.267-.021.462-.493.178-.43.106-1.118.408-1.855a21.2,21.2,0,0,1,3.608-5.607c2.315-2.582,3.083-5.569,5.253-7.968C85.263,11.549,90.346,8.791,89.638,8.513Z" transform="translate(413.028 762.399)"/><path class="d" d="M73.954,57.524c-.65.522-1.614,4.76-1.63,4.831-.341,1.451-.669,6.49-.333,7.444s1.276-2.485,1.276-2.485,1.421,3.689,2.676,4.7c.054.043-1.492-4.564-1.988-7.254C73.3,61.209,74.324,57.226,73.954,57.524Z" transform="translate(409.024 721.732)"/><path class="c" d="M95.872,265.044a31.311,31.311,0,0,0,4.038-1.5c.782-.316,3.167-3.683,4.025-7.481.618-2.8.934-6.788.58-7.457-.052-.095-.243-1.908.265-1.316,1.129,1.316,2.47,3.382,6.7-.32,1.152-1.008,2.679-2.31,2.277-3.46-1.125-3.219-6-9.7-6.745-10.191-.889-.587-5.382-.088-12.068-2.062-7.583-2.238-10.74-8.828-13.707-7.971-2.4.694-8.149,4.957-9.592,7.657-6.812,12.746,1.443,21.678,3.323,24.243l1.825.788.063,1.628.088,1.022c.164,1.956.227,2.133,1.11,2.789,2.208,1.678,6.562,3.243,10.5,3.8A30.489,30.489,0,0,0,95.872,265.044Z" transform="translate(411.32 588.421)"/><path class="d" d="M111.434,308.708l.088,1.022c.164,1.956.227,2.132,1.11,2.789a19.752,19.752,0,0,0,5.622,2.668,30.013,30.013,0,0,0,4.877,1.13,30.5,30.5,0,0,0,7.319-.164c.748-.162-5.408-5-9.035-3.634-2.785,1.048-9.35-6.946-6.681-9.035,2.994-2.343-2.492-11.584-2.669-13.59s-.872-2.486-.893-2.415a3.9,3.9,0,0,0,.034.889C111.442,290.861,111.434,308.708,111.434,308.708Z" transform="translate(377.397 536.717)"/><path class="e" d="M107.571,296.895a.488.488,0,0,1,.573.386c.952,4.893,4.981,8.2,12.184,9.937,7.246,1.742,12.181,1.648,14.782-.211.22-.157.056,1.187-.1,1.29-1.7,1.088-7.463,2.711-14.345,1.244-8.8-1.875-12.93-9.274-13.475-12.073A.489.489,0,0,1,107.571,296.895Z" transform="translate(380.603 529.144)"/><path class="e" d="M89.413,251.765c.234-.134,8.974,9.882,20.967,12.149s14.9.825,15.364-2.267a.489.489,0,1,1,.966.146c-.592,3.919-6.141,4.852-16.495,3.085q-15.336-2.617-20.984-12.446A.489.489,0,0,1,89.413,251.765Z" transform="translate(395.091 565.446)"/><path class="f" d="M118.7,48.66a2.106,2.106,0,0,1-.909-.656l-.379-.467,1.338-1.325a27.747,27.747,0,0,0,5-6.549,27.633,27.633,0,0,0,1.6-3.823,4.1,4.1,0,0,1,.3-.808A1.921,1.921,0,0,1,126.637,34a1.9,1.9,0,0,1,1.691-.29c.606.4.606,1.678,0,3.874a18.3,18.3,0,0,1-3.419,6.625c-.29.379-.833,1.123-1.224,1.64a8.412,8.412,0,0,1-2.65,2.574A2.372,2.372,0,0,1,118.7,48.66Zm9.06-1.136.909.4c.188.087,2.267,1.085,4.763,2.285,4.025,1.934,9.136,4.39,9.167,4.39a2.558,2.558,0,0,0,.341-1.186,17.386,17.386,0,0,1,1.136-4.543,8.279,8.279,0,0,0,.454-1.369,2.238,2.238,0,0,0-.541-.247c-.4-.161-.985-.4-1.629-.706-3.18-1.527-9.4-4.643-10.17-5.11-.757-.442-.908-.479-.908-.189a11.8,11.8,0,0,1-1.363,3.079c-.315.517-.934,1.451-1.375,2.069Zm14.625,4.807c.362.21-.265.517-.416.568a4.891,4.891,0,0,1-2.8-.593c-.45-.319-3.99-2.286-6.339-3.591-1.074-.6-1.9-1.055-2.064-1.154a8.218,8.218,0,0,1-1.123-.757c-.265-.341-.013-.492.732-.429C130.819,46.414,141.6,51.878,142.384,52.331ZM91.091,85.366a24.26,24.26,0,0,0,3.446-1.257c.235-.1.438-.185.591-.247.783-.316,3.167-3.683,4.025-7.481.618-2.8.934-6.788.581-7.457-.213-.387,1.052.912,1.995,1.88.286.293.542.556.718.732,5.5,5.464,13.691,9.855,22.2,11.912a43.275,43.275,0,0,0,11.306,1.4c6.8,0,12.164-1.338,17.034-4.278.231-.14.448-.268.655-.39,1.7-1.005,2.709-1.6,5.478-4.72,3.105-3.5,5.867-11.609,6.789-14.41a49.555,49.555,0,0,0,1.388-7.533,3.634,3.634,0,0,0-1.224-2.9,4.185,4.185,0,0,0-4.341-1.136l-.656.252-.2-.669a4.2,4.2,0,0,0-1.83-2.423c-1.388-.921-1.59-.984-2.839-.984a3.415,3.415,0,0,0-1.855.341l-.719.328-.151-.454a5.253,5.253,0,0,0-2.019-2.612,4.817,4.817,0,0,0-2.637-.214,4.562,4.562,0,0,0-3.546,2.3c-.151.353-.341.631-.416.631a39.88,39.88,0,0,1-5.514-2.007l-1.411-.626c-5.325-2.36-6.479-2.872-6.374-3.513a2.406,2.406,0,0,0-.088-1.312c-.265-.782-.568-1-1.426-1-.681,0-.681,0-.606-.341.4-1.931.391-3.041-.038-3.748a1.663,1.663,0,0,0-1.413-.77,1.542,1.542,0,0,0-1.173.252,2.294,2.294,0,0,1-.656.278,11.5,11.5,0,0,1,.2-1.539,26.739,26.739,0,0,0-2.4-16.851l-.088-.188A23.2,23.2,0,0,0,110.624,2.477c-.417-.158-.812-.311-1.192-.458h0A23.274,23.274,0,0,0,99.167,0,21.681,21.681,0,0,0,87.886,2.515a2.533,2.533,0,0,1-1.009.328,2.071,2.071,0,0,0-.517-.341c-.24-.126-.757-.442-1.136-.694C84.139,1.077,83.47.774,83.129.849c-.391.1-.391.429,0,.58a.883.883,0,0,1,.429.492c.164.454.353.5.467.126.051-.139.126-.24.164-.215l.136.064h0c.185.086.529.248.9.428.517.252,1.085.517,1.237.58.278.1.189.177-1.01.883a26.222,26.222,0,0,0-10.624,11.9,4.008,4.008,0,0,1-.921,1.438,15.527,15.527,0,0,0-2.637,3.192,7.03,7.03,0,0,1-.909,1.35,9.47,9.47,0,0,0-.744,1c-.1.2-.2.341-.24.315a8.62,8.62,0,0,1,.1-1.375c.189-1.678.189-2.12.038-2.158-.227-.063-.555.82-.694,1.918a14.119,14.119,0,0,0-.063,2.713l.076,1.641-.9-1.451c-.308-.485-.611-.97-.827-1.315h0c-.137-.219-.238-.38-.282-.449a1.907,1.907,0,0,1-.379-1.438c.076-.139.063-.2-.063-.2-.265,0-.782.845-1.123,1.817a2.847,2.847,0,0,1-.379.833,31.385,31.385,0,0,1,.1-5.968c.416-2.864,1.514-6.4,2.006-6.4.1,0,.189-.05.189-.126,0-.227-.328-.139-.593.151A13.271,13.271,0,0,0,64.719,15.9a29.108,29.108,0,0,0-.631,5.35,7.913,7.913,0,0,0,.214,3c.29,1.073.517,1.388.909,1.237.139-.051.2-.24.2-.593a11.215,11.215,0,0,1,.341-1.855l.328-1.338.139.555a23.4,23.4,0,0,0,2.145,4.088,4.317,4.317,0,0,1,.871,2.587,59.021,59.021,0,0,0,1.287,6.246c.725,2.878,4.8,5.734,5.816,6.447h0c.134.094.214.15.228.165a.446.446,0,0,0,.4.177c.114-.038.177.013.177.151a.522.522,0,0,0,.189.366c.126.088.215.429.24,1.022a9.324,9.324,0,0,0,1.628,4.2,2.7,2.7,0,0,0,2.385.5c.669-.1.858-.177.795-.328-.038-.1.2.025.53.278A27.057,27.057,0,0,0,95,53.606a30.812,30.812,0,0,0,6.019.341c1.35-.088,1.35-.088,1.287.177-.088.353.025.568,1.88,3.71a15.865,15.865,0,0,0,3.243,4.328A42.291,42.291,0,0,0,119.015,70.7a50.5,50.5,0,0,0,16.429,4.227c5.912.53,10.157-4.9,10.145-6.284a8.93,8.93,0,0,0-.934-4.366c-.631-1.174-1.047-1.577-2.94-2.839a15.379,15.379,0,0,1-4.265-3.773,4.035,4.035,0,0,1-.745-2.107,1.429,1.429,0,0,1,.972-1.123,1.292,1.292,0,0,1,1.224.164c.353.164,1.274.593,2.031.959s1.514.707,1.666.782c.446.124.635,1,.737,1.471.023.106.041.192.057.245a3.733,3.733,0,0,0,1.552,1.792c.947.507,3.281.574,3.924-.12a1.287,1.287,0,0,1,.82-.328,1.719,1.719,0,0,1,.517,1.054,2.864,2.864,0,0,0,1.236,2.145c1.577,1.312,2.8,1.628,4.038,1.047a6.3,6.3,0,0,1,1.171-.421,3.916,3.916,0,0,1,.558.9c.248,1.793,2.9,2.544,3.609,2.62a3.459,3.459,0,0,0,.8-.124c.428-.094.865-.19.957-.087.18.2-3.016,5.489-3.457,6.158-4.2,6.309-12.378,10.17-22.385,10.574-6.5.265-14.486-1.552-21.413-4.858a54.74,54.74,0,0,1-12.555-8.4c-.732-.631-1.577-1.35-1.88-1.6a12.638,12.638,0,0,1-1.577-1.817c-.934-1.262-1.464-1.716-1.464-1.287a13.838,13.838,0,0,0,1.3,2.5c.278.454.454.77.391.719a8.1,8.1,0,0,0-.454,2.019A42.6,42.6,0,0,1,96.4,80.218a7.124,7.124,0,0,1-1.985,2.412c-1.211.921-3.025,1.335-5.536,1.588a28.524,28.524,0,0,1-11.432-1.729c-.946-.353-3.382-1.375-3.546-1.489-.01-.01-.066-.373-.144-.88-.022-.143-.046-.3-.071-.458-.454-3.117-1.085-15.117-1.085-20.669,0-2.3-.025-2.8-.177-2.8-.315,0-.442.3-.58,1.388a166.727,166.727,0,0,0,.088,18.094l.076.618-.429-.24a26.939,26.939,0,0,1-4.025-4.088,12.114,12.114,0,0,1-1.5-3.249c-.076-.224-.146-.43-.213-.611A20.358,20.358,0,0,1,67.18,52.218c2.145-4.366,4.782-6.788,8.644-7.962a8.961,8.961,0,0,0,1.249-.442c.24-.227-1.3-.114-2.145.151a15.13,15.13,0,0,0-7.583,6.107A22.731,22.731,0,0,0,64.227,65.53a18.1,18.1,0,0,0,1.249,4.1c.02.02.124.238.281.567a25.713,25.713,0,0,0,1.877,3.471A27.041,27.041,0,0,0,71.5,77.5l.581.416.088,1.022c.164,1.956.227,2.133,1.11,2.789,2.208,1.678,6.561,3.243,10.5,3.8A30.5,30.5,0,0,0,91.091,85.366Zm42.649-11.849a43.159,43.159,0,0,1-22.6-9.539,42.277,42.277,0,0,1-7.6-9.186c-.29-.5-.5-.745-.757-.808s-.038-.151,1.047-.328a29.5,29.5,0,0,0,12.631-5.4l.53-.391.151.366a3.3,3.3,0,0,0,2.624,1.653,7.544,7.544,0,0,0,2.5-1.136l.543-.366.442.442c.4.4.479.429,1.237.429a3.94,3.94,0,0,0,2.5-.946l.315-.29.9.593c.479.341,1.817,1.085,2.965,1.678,1.716.883,3.533,1.905,5.262,2.965l.278.177-.265.353a3.57,3.57,0,0,0-.795,2.2c0,1.237,1.286,3.458,3.747,4.984,1.934,1.2,5.262,3.557,5.136,7a6.7,6.7,0,0,1-1.1,2.385,7.926,7.926,0,0,1-2.549,1.994A15.315,15.315,0,0,1,133.741,73.517ZM66.461,16.874c.341.076.568.189.517.24A1.489,1.489,0,0,1,65.741,17c-.315-.3-.24-.517.2-.606a1.675,1.675,0,0,0,.757-.416c.189-.189.353-.278.353-.215,0,.164-.631.744-.946.871C65.905,16.723,65.969,16.761,66.461,16.874Zm5.022.2c.366-.2.29-.341-.139-.278s-.454.013-.177-.416a.837.837,0,0,0,.151-.53c-.038-.164-.126-.088-.328.315-.151.29-.366.53-.467.53-.315,0-.341.252-.038.366A1.109,1.109,0,0,0,71.483,17.076Zm-4.366-6.89a11.549,11.549,0,0,0-2.082.845,17.559,17.559,0,0,1-1.615.732c-1.287-.139.5-2.284,3.76-4.479A26.234,26.234,0,0,1,74.36,3.5a4.783,4.783,0,0,1,2.991-.114c.214.164.139.177-.795.189-2.019,0-4.353,1.035-8.151,3.571-1.968,1.312-4.252,3.192-4.252,3.5,0,.063.366-.063.82-.265a4.92,4.92,0,0,1,2.41-.568C67.849,9.935,67.748,10.1,67.117,10.187ZM72,11.272c1.186-.24,1.237-.252,1.237-.379a2.5,2.5,0,0,0-1.022-.151L71.192,10.7l.946-1.073a10.321,10.321,0,0,1,1.338-1.325c.467-.3.492-.517.114-.644l-.29-.088.315-.114a1.739,1.739,0,0,1,.732-.05c.341.05.416.025.378-.151s-.176-.215-.795-.2c-1.8.025-2.574.5-1.161.732.391.063.719.164.719.227s-.063.1-.139.1a12.474,12.474,0,0,0-2.524,2.561C70.435,11.423,70.65,11.537,72,11.272Zm8.328-4.9c-.366.025-.454.088-.429.265l0,.026c.014.093.022.147,0,.163s-.109-.024-.3-.132l-.033-.019c-.24-.126-.265-.189-.126-.29a1.413,1.413,0,0,1,.517-.227l.353-.088L80.05,5.8c-.139-.164-.215-.315-.177-.366a3.411,3.411,0,0,1,1.514.177.2.2,0,0,0,.265-.025c.177-.177.416-.038.416.24,0,.151-.038.164-.151.05a.2.2,0,0,0-.3-.013c-.1.088-.177.088-.24-.013a.851.851,0,0,0-.53-.126c-.233,0-.343,0-.366.044s.03.115.126.258c.2.314.189.315-.273.353ZM78.41,3.02a1.151,1.151,0,0,0-.341-.644l-.353-.353,1.893.076a17.888,17.888,0,0,1,2.65.278,6.306,6.306,0,0,0,1.073.177c.265,0,.214-.05-.278-.315A10.454,10.454,0,0,0,78.99,1.43c-2.524-.177-3.8.063-3.558.694.038.126.24.189.543.189a3.587,3.587,0,0,1,1.969.707C78.309,3.386,78.41,3.386,78.41,3.02ZM72.252,36.433a25.723,25.723,0,0,0,3,3.306,8.658,8.658,0,0,0,.732.555c.013,0-.265-.581-.618-1.287a26.2,26.2,0,0,1-2.65-8.921,4.971,4.971,0,0,0-.379-1.577,1.821,1.821,0,0,1,.013-1.779,2.709,2.709,0,0,0,.252-1.2v-.694L72,25.468c-.593.618-1.161.871-1.161.492a6.326,6.326,0,0,1,1.426-2.031c.391-.328.442-.442.568-1.426.088-.593.29-1.64.454-2.334a7.028,7.028,0,0,0,.252-1.312,21.494,21.494,0,0,0-3.457,4.4,4.523,4.523,0,0,1-.517.909l-.328.421s.1.59.215,1.331.167,1.264.215,1.722a17.212,17.212,0,0,0,.29,1.964A17.813,17.813,0,0,0,70.41,31.6c.038.076.2.656.366,1.3A10.91,10.91,0,0,0,72.252,36.433Zm51.2,11.937-.265-.265s4.4-5.588,5.186-7.647c.6-1.571.955-2.017,1.433-2.017a.679.679,0,0,1,.586.212c.177.265.347.593.12,1.716-.378,1.817-.959,3.016-2.7,5.6a13.341,13.341,0,0,1-1.148,1.476,5.793,5.793,0,0,1-2.416,1.11C123.81,48.622,123.684,48.6,123.457,48.369Z" transform="translate(416.144 767.996)"/><path class="b" d="M490.717,241.61c1.57-4.277,1.332-5.189,1.06-5.278a2.171,2.171,0,0,0-.865,1.06,28.31,28.31,0,0,1-2.807,5.514c-.745.745-.745.745-1.5.745s-2.94-1.14-3.238-2.264c-.476-1.8,1.572-8.045,1.623-8.4l-.341-.24c-.227.215-3.181,9.173-7.066,6.839a4.473,4.473,0,0,1-1.464-2.2c-.42-1.943,1.509-8.738,1.837-10.134a3.727,3.727,0,0,1,3.7-2.409c2.89,0,2.5,2.526,3.8,3.416.573.394,1.516-.321,1.807-.375a3.491,3.491,0,0,1,3.445,1c.921.731,1.6,2.178,2.353,2.688.417.283.859-.1,1-.177a3.008,3.008,0,0,1,2.221.177,5.2,5.2,0,0,1,1.988,2.155c.909,3.216-1.961,10.346-3.044,11.684C493.432,247.629,489.147,245.887,490.717,241.61Z" transform="translate(83.823 587.099)"/><path class="c" d="M130.819,53.829a24.839,24.839,0,0,0,11.085,4,29.2,29.2,0,0,0,10.63-1.123,30.151,30.151,0,0,0,8.5-5.168c4.58-3.836,7.47-9.828,8.732-16.187a31.79,31.79,0,0,0,.433-5.381c0-2.6-1.144-9.7-4.61-13.8-7.149-8.447-18.9-12.253-28.776-9a27.478,27.478,0,0,0-10.22,6.074,26.818,26.818,0,0,0-7.331,13.211c-1.11,5.174.334,11.356,2.845,16.429C124.119,46.921,127.425,51.672,130.819,53.829Zm33.69-15.248A21.542,21.542,0,0,1,148.182,52.65,17.389,17.389,0,0,1,144.51,53c-1.173.038-2.347.025-2.587,0a21.438,21.438,0,0,1-13.388-6.473,18.144,18.144,0,0,1-3.407-4.378,21.017,21.017,0,0,1-2.763-9.237,21.206,21.206,0,0,1,19.722-22.99A21.769,21.769,0,0,1,156.056,13.8a27.99,27.99,0,0,1,4.984,4.934c.341.492,3.647,5.325,4.227,8.1A24.041,24.041,0,0,1,164.51,38.581Z" transform="translate(371.179 763.16)"/><path class="d" d="M264.944,128.548c0,8.469-4.006,17.729-9.177,21.683-2.467,1.887-5.69,4.171-8.5,5.054-4.114,1.293-10.63,1.123-10.63,1.123s6.648-.889,9.112-1.88a25.59,25.59,0,0,0,13.3-11.395A55.258,55.258,0,0,0,264.944,128.548Z" transform="translate(276.445 664.581)"/><path class="c" d="M162.344,71.182a22.591,22.591,0,0,1-9.413-3.407,22.887,22.887,0,0,1-5.2-5.262,21.746,21.746,0,0,1-3.331-8.126,22.394,22.394,0,0,1,.012-7.23,20.278,20.278,0,0,1,1.842-5.237,19.51,19.51,0,0,1,3.912-5.426,20.314,20.314,0,0,1,10.284-5.628,28.535,28.535,0,0,1,6.17-.29,2.238,2.238,0,0,0,.555.366,12.848,12.848,0,0,1,1.552,1.2,9.2,9.2,0,0,1,2.019,2.423,13.8,13.8,0,0,1,.934,1.6c0,.139.4.391.631.391.315,0,.53-.946.593-2.612a7.76,7.76,0,0,1,.164-1.678,21.931,21.931,0,0,1,3.028,1.678,20.761,20.761,0,0,1,4.871,4.593c.593.782.681.984.681,1.464a2.756,2.756,0,0,0,.517,1.464,20.753,20.753,0,0,1,2.221,6.259,21.579,21.579,0,0,1-.013,6.309,22.076,22.076,0,0,1-6.725,12.126,20,20,0,0,1-9.337,4.719A29.92,29.92,0,0,1,162.344,71.182Zm-9.022-8.631a.5.5,0,0,0,.151-.4,2,2,0,0,0-.4-.21,6.678,6.678,0,0,1-1.883-1.153,9.644,9.644,0,0,1-2.574-6.057,20.322,20.322,0,0,1,.58-7.634,9.787,9.787,0,0,1,1.65-3.427c.349-.512.555-.812.355-.838-.492-.076-.568-.038-1.085.454a7.341,7.341,0,0,0-2.145,3.533c-.82,2.549-.979,9.437.644,12.542S153.031,62.879,153.322,62.551Zm17.943-10.6a13.336,13.336,0,0,1-2.183,6.031,5.193,5.193,0,0,1-3.823,1.375A4.865,4.865,0,0,1,161.65,57a11.545,11.545,0,0,1-1.577-4.77c-.51-3.364,1.716-7.281,2.675-8.252a3.293,3.293,0,0,1,4.833-.555A10.266,10.266,0,0,1,171.265,51.952ZM154.255,41.517c.252-.29.29-.429.215-.972a1.124,1.124,0,0,0-.417-.921,1.075,1.075,0,0,0-1.476.025c-.3.29-.341.391-.3,1.085.038.744.063.795.479,1.022A1.143,1.143,0,0,0,154.255,41.517Zm7.874-7.785c-2.271,1.628-3.256,2.3-4.278,2.927-.807.5-1.06.517-1.06.063,0-.24.176-.5.631-.921l.631-.58-1.224-.164a7.652,7.652,0,0,1-3-.845c-.479-.492-.063-.606,1.3-.353a23.541,23.541,0,0,0,2.612.252l1.514.063,1.1-.795c2.41-1.741,4.908-2.726,6.107-2.423.745.177.656.379-.189.479C165.3,31.548,164.7,31.876,162.129,33.731Z" transform="translate(350.885 743.467)"/><path class="b" d="M252.873,168.813c0-.063.076-.126.177-.126a.356.356,0,0,1,.265.126c.038.076-.038.126-.177.126S252.873,168.889,252.873,168.813Z" transform="translate(263.384 632.284)"/><path class="b" d="M256.746,167.661c0-.139.315-.265.669-.265.278.013.278.013.038.189C257.175,167.8,256.746,167.838,256.746,167.661Z" transform="translate(260.268 633.323)"/><path class="b" d="M246.177,164.736c-.038-.1-.088-.278-.126-.379q-.057-.189.189-.189c.139,0,.252.076.252.177a1.437,1.437,0,0,0,.076.378c.05.139.013.2-.126.2A.29.29,0,0,1,246.177,164.736Z" transform="translate(268.881 635.92)"/><path class="b" d="M250.1,163.382c-.063-.379.076-.5.53-.5.139,0,.252.126.3.341.1.366-.063.543-.5.543C250.229,163.76,250.14,163.672,250.1,163.382Z" transform="translate(265.624 636.959)"/><path class="b" d="M242.85,165c-.24-.189-.24-.189.025-.189.164,0,.278.076.278.189C243.153,165.23,243.153,165.23,242.85,165Z" transform="translate(271.59 635.4)"/><path class="b" d="M256.185,162.42c-.164-.164-.088-.656.114-.732.366-.139.53-.076.606.252a.779.779,0,0,1,.051.366A1.13,1.13,0,0,1,256.185,162.42Z" transform="translate(260.791 637.971)"/><path class="b" d="M261.987,161.3a.7.7,0,0,1-.076-.353c0-.214.1-.3.4-.366.265-.05.429-.025.5.076.126.2.126.454.012.517A1.365,1.365,0,0,1,261.987,161.3Z" transform="translate(256.112 638.828)"/><path class="b" d="M240.608,160.842a.334.334,0,0,1,.278-.315c.328-.088.315-.1.379.227.025.189-.038.265-.3.29S240.608,161.031,240.608,160.842Z" transform="translate(273.251 638.893)"/><path class="b" d="M245.16,160.192c-.177-.189-.063-.543.177-.543a.223.223,0,0,1,.252.24C245.589,160.128,245.3,160.33,245.16,160.192Z" transform="translate(269.658 639.556)"/><path class="b" d="M249.285,158.774c-.1-.24.114-.416.53-.416.189,0,.278.076.278.24a.357.357,0,0,1-.278.315C249.4,159.014,249.374,159.014,249.285,158.774Z" transform="translate(266.29 640.594)"/><path class="b" d="M267.9,159.775c.038-.063.1-.126.139-.126s.025.063-.013.126-.1.126-.139.126S267.86,159.851,267.9,159.775Z" transform="translate(251.325 639.556)"/><path class="b" d="M255.061,157.355c-.1-.252.025-.378.429-.442.227-.025.328.025.353.2C255.931,157.531,255.212,157.758,255.061,157.355Z" transform="translate(261.65 641.762)"/><path class="b" d="M239.452,156.23c-.114-.417-.088-.454.24-.454.176,0,.315.05.315.114a1.167,1.167,0,0,0,.076.3c.038.126-.038.2-.252.24C239.591,156.483,239.5,156.432,239.452,156.23Z" transform="translate(274.231 642.672)"/><path class="b" d="M261.265,155.688c0-.227.088-.328.328-.391.353-.088.555.088.555.492,0,.164-.1.215-.442.215C261.316,156,261.265,155.966,261.265,155.688Z" transform="translate(256.632 643.075)"/><path class="b" d="M237.694,156.61c-.038-.1-.012-.189.05-.189s.126.088.126.189-.025.189-.05.189S237.745,156.711,237.694,156.61Z" transform="translate(275.61 642.153)"/><path class="b" d="M243.917,155.423a.366.366,0,0,1,.151-.58.411.411,0,0,1,.315.013.4.4,0,0,1-.126.581C244.018,155.524,244.018,155.524,243.917,155.423Z" transform="translate(270.662 643.441)"/><path class="b" d="M267.123,154.6c-.139-.366.013-.643.366-.681.265-.038.341.013.341.215,0,.416-.139.643-.391.643A.341.341,0,0,1,267.123,154.6Z" transform="translate(251.96 644.174)"/><path class="b" d="M248.447,154.618a.277.277,0,0,1,.114-.467c.24-.088.745.164.606.3C248.989,154.605,248.535,154.719,248.447,154.618Z" transform="translate(267.015 643.994)"/><path class="b" d="M254.341,153.027c-.114-.177.29-.479.618-.479.151,0,.214.076.189.214C255.1,153.015,254.455,153.217,254.341,153.027Z" transform="translate(262.218 645.269)"/><path class="b" d="M236.337,152.419a1.378,1.378,0,0,0-.076-.315c-.038-.114-.025-.2.05-.2.164,0,.29.48.139.581C236.388,152.52,236.337,152.5,236.337,152.419Z" transform="translate(276.765 645.789)"/><path class="b" d="M238.4,151.09a.35.35,0,0,1,.366-.479c.164,0,.328.492.227.656C238.852,151.482,238.461,151.356,238.4,151.09Z" transform="translate(275.045 646.827)"/><path class="b" d="M242.607,150.412a.471.471,0,0,1,.177-.707c.189-.05.29.013.391.24a.628.628,0,0,1,.088.353C243.137,150.412,242.683,150.5,242.607,150.412Z" transform="translate(271.719 647.569)"/><path class="b" d="M260.089,151.457c-.164-.164-.088-.265.29-.4.315-.1.4-.088.467.063C260.96,151.419,260.329,151.709,260.089,151.457Z" transform="translate(257.644 646.524)"/><path class="b" d="M265.939,150.345c-.126-.2.05-.379.379-.379.391,0,.5.328.151.429C266.09,150.5,266.027,150.483,265.939,150.345Z" transform="translate(252.905 647.346)"/><path class="b" d="M271.594,149.048c0-.189.227-.391.328-.29s-.088.467-.215.467C271.644,149.224,271.594,149.149,271.594,149.048Z" transform="translate(248.322 648.34)"/><path class="b" d="M235.573,147.39a.487.487,0,0,1-.076-.341c0-.24.013-.24.126.038C235.75,147.39,235.725,147.541,235.573,147.39Z" transform="translate(277.365 649.834)"/><path class="b" d="M236.855,146.572c-.114-.442-.1-.479.227-.479.366,0,.593.467.315.643S236.944,146.863,236.855,146.572Z" transform="translate(276.323 650.462)"/><path class="b" d="M259.329,146.3a3.838,3.838,0,0,1,.139-.467c.177-.5.568-.53.656-.038a1.225,1.225,0,0,1,.038.366A2.093,2.093,0,0,1,259.329,146.3Z" transform="translate(258.19 650.99)"/><path class="b" d="M241.341,146.172a.511.511,0,0,1-.088-.328c0-.2.038-.214.189-.088a.558.558,0,0,1,.189.328C241.632,146.273,241.48,146.324,241.341,146.172Z" transform="translate(272.733 650.799)"/><path class="b" d="M264.871,144.768c-.076-.391.088-.568.479-.517.189.025.252.139.252.416,0,.315-.05.391-.328.417S264.934,145.058,264.871,144.768Z" transform="translate(253.745 651.951)"/><path class="b" d="M270.9,144.284c-.164-.5-.114-.656.227-.694.3-.038.341,0,.341.328,0,.278-.076.391-.265.442C271.064,144.4,270.925,144.36,270.9,144.284Z" transform="translate(248.953 652.485)"/><path class="b" d="M234.927,142.4c0-.24.025-.341.063-.214a1.3,1.3,0,0,1,0,.442C234.952,142.743,234.927,142.642,234.927,142.4Z" transform="translate(277.822 653.648)"/><path class="b" d="M236.173,141.233a.543.543,0,0,1,.114-.719c.29-.114.429.025.429.442,0,.265-.063.366-.227.366A.5.5,0,0,1,236.173,141.233Z" transform="translate(276.891 654.982)"/><path class="b" d="M240.2,140.686c-.05-.189-.076-.391-.025-.429.126-.126.2.076.164.442l-.038.353Z" transform="translate(273.624 655.188)"/><path class="b" d="M261.265,141.388c0-.139.063-.215.126-.177a.318.318,0,0,1,.126.265c0,.1-.05.176-.126.176S261.265,141.539,261.265,141.388Z" transform="translate(256.632 654.398)"/><path class="b" d="M263.848,140.3a.39.39,0,0,1,.252-.606c.366-.088.379-.088.492.278.076.227.025.278-.3.328A.964.964,0,0,1,263.848,140.3Z" transform="translate(254.617 655.649)"/><path class="b" d="M268.877,134.876c-.139-.126-.1-.543.038-.543a.119.119,0,0,0,.126-.126c0-.063-.076-.126-.177-.126-.215,0-.391-.618-.215-.795.227-.227.479.013.631.631.088.328.177.707.215.833.05.164,0,.214-.24.214A.633.633,0,0,1,268.877,134.876Z" transform="translate(250.749 660.833)"/><path class="b" d="M270.705,126.4c-.088-.379-.315-1.136-.479-1.691-.252-.808-.278-1.01-.139-1.1a.641.641,0,0,1,.24-.114,11.671,11.671,0,0,1,.593,3.091l-.038.5Z" transform="translate(249.602 668.641)"/><path class="b" d="M234.281,137.146c0-.2.025-.278.063-.151a.954.954,0,0,1,0,.379C234.306,137.449,234.281,137.36,234.281,137.146Z" transform="translate(278.342 657.832)"/><path class="b" d="M235.515,136.277c.051-.442.417-.543.517-.139.088.328.114.29-.265.416C235.5,136.631,235.477,136.605,235.515,136.277Z" transform="translate(277.36 658.675)"/><path class="b" d="M262.713,135.1c-.1-.366.113-.58.517-.53a.447.447,0,0,1,.164.744C263.079,135.518,262.789,135.43,262.713,135.1Z" transform="translate(255.487 659.737)"/><path class="b" d="M239.317,135.446c0-.215.063-.328.2-.328s.177.088.151.278C239.607,135.8,239.317,135.837,239.317,135.446Z" transform="translate(274.29 659.292)"/><path class="b" d="M233.561,133.539c0-.139.038-.177.076-.076a.256.256,0,0,1-.013.24C233.586,133.754,233.548,133.678,233.561,133.539Z" transform="translate(278.923 660.669)"/><path class="b" d="M234.8,132.8c0-.189.076-.265.265-.265s.24.063.215.214C235.214,133.079,234.8,133.116,234.8,132.8Z" transform="translate(277.926 661.369)"/><path class="b" d="M238.15,131.81c-.088-.227-.088-.227.29-.328.227-.076.278-.038.278.151C238.718,131.936,238.263,132.088,238.15,131.81Z" transform="translate(275.268 662.247)"/><path class="b" d="M261.622,130.433c-.088-.315.076-.479.517-.479.214,0,.278.076.278.315,0,.189-.076.315-.176.315a1.26,1.26,0,0,0-.366.076C261.761,130.7,261.673,130.623,261.622,130.433Z" transform="translate(256.363 663.446)"/><path class="b" d="M267.205,129.1c-.1-.252.05-.442.341-.442.177,0,.24.088.24.315s-.063.315-.252.315A.371.371,0,0,1,267.205,129.1Z" transform="translate(251.878 664.485)"/><path class="b" d="M234.152,128.109c0-.265.29-.568.417-.429a.634.634,0,0,1,.088.379c0,.2-.076.29-.252.29A.223.223,0,0,1,234.152,128.109Z" transform="translate(278.446 665.304)"/><path class="b" d="M237.561,127.1c-.1-.315.012-.454.442-.517.391-.05.517.366.177.618S237.649,127.4,237.561,127.1Z" transform="translate(275.731 666.165)"/><path class="b" d="M260.7,125.891c-.088-.076-.126-.543-.05-.543.013,0,.2-.05.429-.114.379-.114.4-.1.391.24-.013.252-.088.379-.278.429C260.848,125.992,260.8,125.992,260.7,125.891Z" transform="translate(257.162 667.295)"/><path class="b" d="M258.683,126.948c0-.088.038-.126.088-.088a.151.151,0,0,1,0,.177C258.721,127.074,258.683,127.036,258.683,126.948Z" transform="translate(258.709 665.948)"/><path class="b" d="M265.879,124.493c.038-.215.429-.53.517-.429a.989.989,0,0,1,.139.353c.088.252.05.278-.3.278C265.93,124.695,265.842,124.644,265.879,124.493Z" transform="translate(252.926 668.201)"/><path class="b" d="M234.8,124.671a.776.776,0,0,1,.126-.29c.1-.151.126-.139.126.1,0,.151-.05.278-.126.278S234.8,124.721,234.8,124.671Z" transform="translate(277.926 668.01)"/><path class="b" d="M236.734,123.423c0-.353.265-.467.467-.2.126.189.126.252,0,.341C236.936,123.726,236.734,123.675,236.734,123.423Z" transform="translate(276.368 668.981)"/><path class="b" d="M255.651,123.068c-.227-.252-.227-.265-.012-.189a1.283,1.283,0,0,0,.353.088c.063,0,.114.088.114.189C256.106,123.422,255.929,123.4,255.651,123.068Z" transform="translate(261.287 669.171)"/><path class="b" d="M240.617,118.393c-.543-.416-.618-1.35-.114-1.35.341,0,.656.53.606,1.022C241.071,118.519,240.919,118.62,240.617,118.393Z" transform="translate(273.609 673.834)"/><path class="b" d="M260.108,124.221a.152.152,0,0,1,.177,0c.038.051,0,.088-.088.088S260.07,124.271,260.108,124.221Z" transform="translate(257.575 668.082)"/><path class="b" d="M269.828,120.573a1.989,1.989,0,0,0,.076-.252c0-.025.063-.051.126-.051s.126.114.126.253-.088.252-.2.252C269.815,120.775,269.778,120.712,269.828,120.573Z" transform="translate(249.76 671.238)"/><path class="b" d="M236.089,118.458c0-.29.265-.77.416-.77.265,0,.076.808-.2.858C236.19,118.571,236.089,118.533,236.089,118.458Z" transform="translate(276.887 673.315)"/><path class="b" d="M249.056,120.007l-.379-.088.341-.088c.353-.1.606-.025.606.189C249.623,120.146,249.611,120.146,249.056,120.007Z" transform="translate(266.76 671.627)"/><path class="b" d="M248.354,116.014c0-.517.29-.593.555-.139.177.3.189.366.025.366a1.435,1.435,0,0,0-.379.076C248.4,116.38,248.354,116.3,248.354,116.014Z" transform="translate(267.02 675.014)"/><path class="b" d="M255.744,105.945a1.811,1.811,0,0,1-.934-1.716,1.049,1.049,0,0,1,.391-1.022,1.61,1.61,0,0,1,.492-.366c.278,0,1.3.971,1.64,1.577l.391.694-.416.442A1.291,1.291,0,0,1,255.744,105.945Z" transform="translate(261.825 685.26)"/><path class="b" d="M246.022,116.523c-.038-.063-.013-.126.05-.126a.138.138,0,0,1,.139.126c0,.076-.025.126-.05.126S246.06,116.6,246.022,116.523Z" transform="translate(268.91 674.354)"/><path class="b" d="M237.506,114.764a1.975,1.975,0,0,0,.076-.252c0-.025.114-.05.252-.05.315,0,.328.2.013.378C237.506,115.016,237.418,115,237.506,114.764Z" transform="translate(275.773 675.911)"/><path class="b" d="M241.547,113.154c-.29-.038-.379-.2-.189-.315a2.261,2.261,0,0,1,.5-.151c.341-.076.4-.051.4.164C242.267,113.116,242,113.23,241.547,113.154Z" transform="translate(272.729 677.37)"/><path class="b" d="M247.709,112.14c0-.151.012-.24.038-.214s.114.151.2.278c.151.177.139.215-.038.215C247.785,112.418,247.709,112.317,247.709,112.14Z" transform="translate(267.538 677.955)"/><path class="b" d="M238.671,111.706a.27.27,0,0,1,.126-.2c.076-.038.126.013.126.114s-.05.2-.126.2A.124.124,0,0,1,238.671,111.706Z" transform="translate(274.81 678.3)"/><path class="b" d="M241.027,110.048c-.1-.252.795-.53.946-.29.114.2,0,.29-.479.391C241.2,110.212,241.078,110.187,241.027,110.048Z" transform="translate(272.921 679.769)"/><path class="b" d="M247.118,109.008c0-.139.038-.177.076-.076a.256.256,0,0,1-.012.24C247.143,109.223,247.105,109.147,247.118,109.008Z" transform="translate(268.016 680.405)"/><path class="b" d="M241.519,105.509c.151-.278.593-.732.707-.732s.139.593.013.669c-.063.025-.265.088-.454.139C241.506,105.648,241.443,105.635,241.519,105.509Z" transform="translate(272.542 683.702)"/><path class="b" d="M246.517,104.468c-.139-.379-.076-.543.227-.593s.315-.063.114.328C246.6,104.708,246.617,104.708,246.517,104.468Z" transform="translate(268.554 684.453)"/><path class="b" d="M246.418,100.5a2.718,2.718,0,0,1,.568-.378,1.18,1.18,0,0,1,.833-.252c.227.076.164.126-.391.391C246.809,100.543,246.418,100.644,246.418,100.5Z" transform="translate(268.577 687.659)"/><path class="b" d="M272.565,35.113a13.348,13.348,0,0,0-1.577-1.767c-.517-.479-.858-.871-.757-.871a20.159,20.159,0,0,1,2.927.808c.441.189.454.215.341.606a6.234,6.234,0,0,0-.114,1.262,2.1,2.1,0,0,1-.088.858A4.478,4.478,0,0,1,272.565,35.113Z" transform="translate(249.434 741.872)"/><path class="b" d="M142.577,227.1c-.517-.265-.631-.416-1.287-1.716-.946-1.842-.972-2.271-.076-1.224.353.416,1.174,1.274,1.817,1.905,1.1,1.06,1.148,1.136.782,1.085-.265-.038-.366-.012-.3.088C143.662,227.465,143.183,227.4,142.577,227.1Z" transform="translate(353.743 588.106)"/><path class="g" d="M258.9,328.855a.489.489,0,0,1,.261-.64l.272-.115c2.643-1.131,4.16-1.81,5.191-2.889a6.8,6.8,0,0,0,1.348-3.627c.053-.265.652.2.917.253a.489.489,0,0,1,.383.575,6.72,6.72,0,0,1-1.869,3.313,18.619,18.619,0,0,1-5.862,3.391A.489.489,0,0,1,258.9,328.855Z" transform="translate(258.562 509.339)"/><path class="f" d="M240.546,101.261a.489.489,0,0,1,.67.17,15.154,15.154,0,0,1-19.379,21.493c-.245-.113-1.17-1.016-.238-.649a26.434,26.434,0,0,0,6.618,1.191c7.826,0,13.363-6.471,13.363-14.3,0-2.584-1.033-4.878-1.2-7.238C240.357,101.657,240.314,101.4,240.546,101.261Z" transform="translate(288.873 686.587)"/><path class="g" d="M72.153,288.721c.173-.207.481-.626.688-.453a6.549,6.549,0,0,0,2.729,1.688,12.943,12.943,0,0,0,3.595,0,.489.489,0,0,1,.117.97,13.891,13.891,0,0,1-3.87,0,6.621,6.621,0,0,1-3.2-1.511A.489.489,0,0,1,72.153,288.721Z" transform="translate(408.871 536.111)"/><path class="b" d="M100.926,117.326a25.723,25.723,0,0,1-3-3.306,10.914,10.914,0,0,1-1.476-3.533c-.164-.643-.328-1.224-.366-1.3a17.817,17.817,0,0,1-.454-1.994c-.3-1.464-.239-1.935-.5-3.686-.113-.741-.215-1.331-.215-1.331l.328-.421a4.521,4.521,0,0,0,.517-.909,21.5,21.5,0,0,1,3.457-4.4,7.027,7.027,0,0,1-.252,1.312c-.164.694-.366,1.741-.454,2.334-.126.984-.177,1.1-.568,1.426a6.326,6.326,0,0,0-1.426,2.031c0,.379.568.126,1.161-.492l.606-.631v.694a2.709,2.709,0,0,1-.252,1.2,1.821,1.821,0,0,0-.013,1.779,4.971,4.971,0,0,1,.379,1.577,26.2,26.2,0,0,0,2.65,8.921c.353.707.631,1.287.618,1.287A8.663,8.663,0,0,1,100.926,117.326Z" transform="translate(390.474 690.409)"/><path class="c" d="M394.313,216.539l.909.4c.188.087,2.267,1.085,4.763,2.285,4.025,1.934,9.136,4.39,9.167,4.39a2.559,2.559,0,0,0,.341-1.186,17.387,17.387,0,0,1,1.136-4.543,8.28,8.28,0,0,0,.454-1.369,2.237,2.237,0,0,0-.541-.247c-.4-.161-.985-.4-1.629-.706-3.18-1.527-9.4-4.643-10.17-5.11-.757-.442-.909-.479-.909-.189a11.807,11.807,0,0,1-1.363,3.079c-.315.517-.934,1.451-1.375,2.069Zm14.625,4.807c.362.21-.265.517-.416.568a4.891,4.891,0,0,1-2.8-.593c-.45-.319-3.99-2.286-6.339-3.591-1.074-.6-1.9-1.055-2.064-1.154a8.221,8.221,0,0,1-1.123-.757c-.265-.341-.012-.492.732-.429C397.373,215.428,408.156,220.893,408.938,221.346Z" transform="translate(149.59 598.981)"/><path class="b" d="M342.665,186.955a2.106,2.106,0,0,1-.909-.656l-.379-.467,1.338-1.325a28.2,28.2,0,0,0,4.934-6.686c.454-.82,1.8-4.128,1.969-4.494a1.921,1.921,0,0,1,.984-1.035,1.9,1.9,0,0,1,1.691-.29c.606.4.606,1.678,0,3.874a18.3,18.3,0,0,1-3.419,6.625c-.29.379-.833,1.123-1.224,1.64a8.41,8.41,0,0,1-2.65,2.574A2.372,2.372,0,0,1,342.665,186.955Z" transform="translate(192.178 629.701)"/><path class="b" d="M371.209,206.578l-.265-.265s4.4-5.588,5.186-7.647c.6-1.571.955-2.017,1.433-2.017a.679.679,0,0,1,.586.212c.177.265.347.593.12,1.716-.379,1.817-.959,3.016-2.7,5.6a13.332,13.332,0,0,1-1.148,1.476,5.794,5.794,0,0,1-2.416,1.11C371.563,206.831,371.436,206.805,371.209,206.578Z" transform="translate(168.391 609.787)"/><path class="d" d="M410.079,211.541a5.071,5.071,0,0,0,.436-1.274c0-.29.151-.252.909.189.77.467,6.991,3.584,10.17,5.11,1.186.568,2.17.89,2.17.953S409.809,212.158,410.079,211.541Z" transform="translate(136.909 598.981)"/><path class="d" d="M152.931,91.467a22.887,22.887,0,0,1-5.2-5.262,21.746,21.746,0,0,1-3.331-8.126,22.394,22.394,0,0,1,.012-7.23,20.277,20.277,0,0,1,1.842-5.237,19.51,19.51,0,0,1,3.912-5.426c1.67-1.67-5.754,5.238-3.912,17.6C147.732,88.141,154.077,92.222,152.931,91.467Z" transform="translate(350.885 719.776)"/></g></svg>