<svg xmlns="http://www.w3.org/2000/svg" width="13.845" height="13.845" viewBox="0 0 13.845 13.845"><defs><style>.a{fill:#2a2a2a;}</style></defs><path class="a" d="M9.72,0h-5.6A4.129,4.129,0,0,0,0,4.124v5.6a4.129,4.129,0,0,0,4.124,4.124h5.6A4.129,4.129,0,0,0,13.845,9.72v-5.6A4.129,4.129,0,0,0,9.72,0Zm2.732,9.72A2.732,2.732,0,0,1,9.72,12.452h-5.6A2.732,2.732,0,0,1,1.393,9.72v-5.6A2.732,2.732,0,0,1,4.124,1.393h5.6a2.732,2.732,0,0,1,2.732,2.732v5.6Z"/><path class="a" d="M136.189,133a3.189,3.189,0,1,0,3.189,3.189A3.192,3.192,0,0,0,136.189,133Zm0,5.137a1.948,1.948,0,1,1,1.948-1.948A1.948,1.948,0,0,1,136.189,138.137Z" transform="translate(-129.266 -129.266)"/><circle class="a" cx="0.959" cy="0.959" r="0.959" transform="translate(9.492 2.469)"/></svg>