<svg xmlns="http://www.w3.org/2000/svg" width="94.62" height="21.117" viewBox="0 0 94.62 21.117"><defs><style>.a{opacity:0.996;}.b{fill:#1d252e;}.b,.c,.d{fill-rule:evenodd;}.c{fill:#f3b229;}.d{fill:#df542f;}</style></defs><g class="a"><g transform="translate(0 0)"><path class="b" d="M29.385,15.348S29.3,15,27.867,14.792a17.056,17.056,0,0,1-2.011-.373,3.112,3.112,0,0,1-1.428-.852,2.4,2.4,0,0,1-.6-1.74,2.588,2.588,0,0,1,.564-1.642,3.74,3.74,0,0,1,1.647-1.136,7.219,7.219,0,0,1,2.593-.417,10.747,10.747,0,0,1,2.129.213,6.233,6.233,0,0,1,1.765.6l-1.037,2.29a6.325,6.325,0,0,0-2.755-.629,3.827,3.827,0,0,0-1.048.1.7.7,0,0,0-.447.345c-.146.288.005.735,1.63.894a10.978,10.978,0,0,1,2.02.408,3.1,3.1,0,0,1,1.392.843,2.366,2.366,0,0,1,.591,1.713,2.564,2.564,0,0,1-.564,1.624,3.675,3.675,0,0,1-1.665,1.128,7.639,7.639,0,0,1-2.648.408,10.887,10.887,0,0,1-2.438-.275,6.529,6.529,0,0,1-1.929-.719l1.037-2.308a11.661,11.661,0,0,0,1.6.485,8.97,8.97,0,0,0,2,.193c1.334.018,1.122-.6,1.122-.6" transform="translate(-6.581 -2.065)"/><path class="b" d="M44.96,18.7a3.179,3.179,0,0,1-1.025.445,5.174,5.174,0,0,1-1.287.155A3.814,3.814,0,0,1,39.8,18.291a4.114,4.114,0,0,1-.99-3v-9H42.14V8.059h2.155v2.958H42.14v3.959a1.339,1.339,0,0,0,.263.89.891.891,0,0,0,.718.31,1.645,1.645,0,0,0,1.016-.329Z" transform="translate(-10.855 -2.178)"/><path class="b" d="M98.453,15.283a2.414,2.414,0,0,0,.56-1.694,2.354,2.354,0,0,0-.56-1.667,2.012,2.012,0,0,0-2.873,0,2.353,2.353,0,0,0-.56,1.667,2.413,2.413,0,0,0,.56,1.694,1.992,1.992,0,0,0,2.873,0m-4.187,2.651a4.783,4.783,0,0,1-1.918-1.774,4.841,4.841,0,0,1-.692-2.571,4.809,4.809,0,0,1,.692-2.554,4.735,4.735,0,0,1,1.909-1.765,6.379,6.379,0,0,1,5.527,0,4.681,4.681,0,0,1,1.909,1.756,4.843,4.843,0,0,1,.683,2.563,4.888,4.888,0,0,1-.683,2.571,4.721,4.721,0,0,1-1.909,1.774,6.283,6.283,0,0,1-5.518,0" transform="translate(-25.246 -2.069)"/><path class="b" d="M122.568,15.283a2.414,2.414,0,0,0,.56-1.694,2.354,2.354,0,0,0-.56-1.667,2.012,2.012,0,0,0-2.873,0,2.352,2.352,0,0,0-.561,1.667,2.412,2.412,0,0,0,.561,1.694,1.992,1.992,0,0,0,2.873,0m-4.187,2.651a4.781,4.781,0,0,1-1.918-1.774,4.84,4.84,0,0,1-.692-2.571,4.808,4.808,0,0,1,.692-2.554,4.735,4.735,0,0,1,1.909-1.765,6.379,6.379,0,0,1,5.527,0,4.681,4.681,0,0,1,1.909,1.756,4.841,4.841,0,0,1,.683,2.563,4.887,4.887,0,0,1-.683,2.571,4.721,4.721,0,0,1-1.909,1.774,6.283,6.283,0,0,1-5.518,0" transform="translate(-31.872 -2.069)"/><path class="b" d="M3.851,18.3c0,.357-.842.646-1.881.646S.088,18.659.088,18.3V9.265c0-.347.842-.628,1.881-.628s1.881.281,1.881.628Z" transform="translate(-0.088 -2.031)"/><path class="c" d="M3.851,9.265c0,.347-.842.628-1.881.628S.088,9.612.088,9.265s.842-.628,1.881-.628,1.881.281,1.881.628" transform="translate(-0.088 -2.49)"/><path class="d" d="M3.818,1.955A1.818,1.818,0,1,1,2,.119,1.827,1.827,0,0,1,3.818,1.955" transform="translate(-0.12 -0.119)"/><path class="b" d="M17.274,13.4a4.888,4.888,0,0,0-9.773,0v5.164h3.328V13.8q0-1.9,1.559-1.9h0q1.559,0,1.559,1.9v4.769h3.328V13.4Z" transform="translate(-2.561 -2.067)"/><path class="b" d="M54.927,15.19a2.248,2.248,0,0,0,.554-1.614,2.194,2.194,0,0,0-.554-1.588,2.042,2.042,0,0,0-2.84,0,2.192,2.192,0,0,0-.554,1.588,2.246,2.246,0,0,0,.554,1.614,2.022,2.022,0,0,0,2.84,0Zm-6.638-1.439a5.257,5.257,0,0,1,10.512,0l0,.476v4.339H55.667V17.5A3.461,3.461,0,0,1,52.9,18.566a4.709,4.709,0,0,1-2.33-.583A4.28,4.28,0,0,1,48.9,16.319a4.97,4.97,0,0,1-.615-2.5Z" transform="translate(-13.339 -2.063)"/><path class="b" d="M82.022,13.395a4.828,4.828,0,0,0-4.887-4.768,4.937,4.937,0,0,0-3.223,1.186A4.936,4.936,0,0,0,70.69,8.627,4.828,4.828,0,0,0,65.8,13.395v5.164h3.328V13.789q0-1.9,1.559-1.9t1.559,1.9v4.769h3.328V13.789q0-1.9,1.559-1.9t1.559,1.9v4.769h3.328V13.395Z" transform="translate(-17.846 -2.065)"/><path class="b" d="M111.881,18.758a3.787,3.787,0,0,1-.586,2.193,3.446,3.446,0,0,1-1.426,1.23,3.913,3.913,0,0,1-1.606.378l-1.108-2.468a2.085,2.085,0,0,0,.914-.5,1.584,1.584,0,0,0,.388-.842,9.333,9.333,0,0,0,.092-1.5v-8.6h3.333Z" transform="translate(-28.997 -1.441)"/></g></g></svg>