<svg xmlns="http://www.w3.org/2000/svg" width="11.163" height="13.74" viewBox="0 0 11.163 13.74"><defs><style>.a{fill:#2a2a2a;}</style></defs><path class="a" d="M53.772,0C50.007,0,48,2.413,48,5.044a3.685,3.685,0,0,0,1.773,3.225c.166.075.256.043.293-.111.033-.117.176-.679.246-.945a.243.243,0,0,0-.058-.239,3.129,3.129,0,0,1-.65-1.9,3.7,3.7,0,0,1,3.942-3.617A3.375,3.375,0,0,1,57.2,4.849C57.2,7.1,56,8.662,54.455,8.662a1.228,1.228,0,0,1-1.294-1.506,16.326,16.326,0,0,0,.725-2.774,1.065,1.065,0,0,0-1.1-1.172A1.819,1.819,0,0,0,51.2,5.236a2.888,2.888,0,0,0,.261,1.236s-.864,3.49-1.024,4.142a9.268,9.268,0,0,0,.064,3.044.091.091,0,0,0,.165.042,10.82,10.82,0,0,0,1.422-2.678c.106-.392.544-1.984.544-1.984a2.374,2.374,0,0,0,2,.955c2.631,0,4.532-2.313,4.532-5.183C59.157,2.058,56.8,0,53.772,0" transform="translate(-48.004)"/></svg>