<svg xmlns="http://www.w3.org/2000/svg" width="14.411" height="11.712" viewBox="0 0 14.411 11.712"><defs><style>.a{fill:#2a2a2a;}</style></defs><path class="a" d="M4.614,7.888A8.355,8.355,0,0,0,13.027-.524q0-.192-.008-.382a6.017,6.017,0,0,0,1.475-1.531,5.9,5.9,0,0,1-1.7.466,2.968,2.968,0,0,0,1.3-1.635,5.93,5.93,0,0,1-1.877.718,2.953,2.953,0,0,0-2.158-.934A2.957,2.957,0,0,0,7.1-.868a2.954,2.954,0,0,0,.077.674A8.4,8.4,0,0,1,1.085-3.283,2.95,2.95,0,0,0,.684-1.8,2.954,2.954,0,0,0,2,.664,2.934,2.934,0,0,1,.661.295c0,.012,0,.025,0,.038a2.958,2.958,0,0,0,2.372,2.9,2.968,2.968,0,0,1-.78.1A2.938,2.938,0,0,1,1.7,3.282,2.96,2.96,0,0,0,4.459,5.335,5.932,5.932,0,0,1,.787,6.6,6.017,6.017,0,0,1,.082,6.56,8.37,8.37,0,0,0,4.614,7.888" transform="translate(-0.082 3.824)"/></svg>