<svg xmlns="http://www.w3.org/2000/svg" width="16.898" height="15.924" viewBox="0 0 16.898 15.924"><defs><style>.a{fill:#ff1f1f;}</style></defs><g transform="translate(0 -14.759)"><g transform="translate(0 14.759)"><path class="a" d="M16.547,26.944,10.578,15.971a2.476,2.476,0,0,0-4.257,0L.352,26.944A2.474,2.474,0,0,0,2.48,30.683H14.419A2.475,2.475,0,0,0,16.547,26.944ZM8.449,28.7a.99.99,0,1,1,.99-.99A.991.991,0,0,1,8.449,28.7Zm.99-3.961a.99.99,0,1,1-1.98,0V19.791a.99.99,0,1,1,1.98,0Z" transform="translate(0 -14.759)"/></g></g></svg>